<?xml version="1.0" encoding="utf-8" standalone="no"?>
<!DOCTYPE svg PUBLIC "-//W3C//DTD SVG 1.1//EN"
  "http://www.w3.org/Graphics/SVG/1.1/DTD/svg11.dtd">
<svg xmlns:xlink="http://www.w3.org/1999/xlink" width="676.8pt" height="439.2pt" viewBox="0 0 676.8 439.2" xmlns="http://www.w3.org/2000/svg" version="1.1">
 <metadata>
  <rdf:RDF xmlns:dc="http://purl.org/dc/elements/1.1/" xmlns:cc="http://creativecommons.org/ns#" xmlns:rdf="http://www.w3.org/1999/02/22-rdf-syntax-ns#">
   <cc:Work>
    <dc:type rdf:resource="http://purl.org/dc/dcmitype/StillImage"/>
    <dc:date>2026-08-07T18:50:30.699670</dc:date>
    <dc:format>image/svg+xml</dc:format>
    <dc:creator>
     <cc:Agent>
      <dc:title>Matplotlib v3.10.9, https://matplotlib.org/</dc:title>
     </cc:Agent>
    </dc:creator>
   </cc:Work>
  </rdf:RDF>
 </metadata>
 <defs>
  <style type="text/css">*{stroke-linejoin: round; stroke-linecap: butt}</style>
 </defs>
 <g id="figure_1">
  <g id="patch_1">
   <path d="M 0 439.2 
L 676.8 439.2 
L 676.8 0 
L 0 0 
z
" style="fill: #ffffff"/>
  </g>
  <g id="axes_1">
   <g id="patch_2">
    <path d="M 46.944 49.68 
Q 46.944 195.325714 46.944 339.629788 
" clip-path="url(#p15bc4d9951)" style="fill: none; stroke: #999999; stroke-width: 1.2; stroke-linecap: round"/>
    <path d="M 49.144 335.229788 
L 46.944 339.629788 
L 44.744 335.229788 
z
" clip-path="url(#p15bc4d9951)" style="fill: #999999; stroke: #999999; stroke-width: 1.2; stroke-linecap: round"/>
   </g>
   <g id="patch_3">
    <path d="M 497.376 183.188571 
Q 474.192 183.188571 452.349641 183.188571 
" clip-path="url(#p15bc4d9951)" style="fill: none; stroke: #666666; stroke-width: 1.2; stroke-linecap: round"/>
    <path d="M 456.749641 185.388571 
L 452.349641 183.188571 
L 456.749641 180.988571 
z
" clip-path="url(#p15bc4d9951)" style="fill: #666666; stroke: #666666; stroke-width: 1.2; stroke-linecap: round"/>
   </g>
   <g id="patch_4">
    <path d="M 102.5856 407.725714 
L 113.184 407.725714 
Q 115.8336 407.725714 115.8336 410.153143 
L 115.8336 419.862857 
Q 115.8336 422.290286 113.184 422.290286 
L 102.5856 422.290286 
Q 99.936 422.290286 99.936 419.862857 
L 99.936 410.153143 
Q 99.936 407.725714 102.5856 407.725714 
z
" clip-path="url(#p15bc4d9951)" style="fill: #fdeaea; stroke: #c0392b; stroke-linejoin: miter"/>
   </g>
   <g id="patch_5">
    <path d="M 241.6896 407.725714 
L 252.288 407.725714 
Q 254.9376 407.725714 254.9376 410.153143 
L 254.9376 419.862857 
Q 254.9376 422.290286 252.288 422.290286 
L 241.6896 422.290286 
Q 239.04 422.290286 239.04 419.862857 
L 239.04 410.153143 
Q 239.04 407.725714 241.6896 407.725714 
z
" clip-path="url(#p15bc4d9951)" style="fill: #fdf3e3; stroke: #b9770e; stroke-linejoin: miter"/>
   </g>
   <g id="patch_6">
    <path d="M 380.7936 407.725714 
L 391.392 407.725714 
Q 394.0416 407.725714 394.0416 410.153143 
L 394.0416 419.862857 
Q 394.0416 422.290286 391.392 422.290286 
L 380.7936 422.290286 
Q 378.144 422.290286 378.144 419.862857 
L 378.144 410.153143 
Q 378.144 407.725714 380.7936 407.725714 
z
" clip-path="url(#p15bc4d9951)" style="fill: #f2f4f6; stroke: #7f8c8d; stroke-linejoin: miter"/>
   </g>
   <g id="patch_7">
    <path d="M 519.8976 407.725714 
L 530.496 407.725714 
Q 533.1456 407.725714 533.1456 410.153143 
L 533.1456 419.862857 
Q 533.1456 422.290286 530.496 422.290286 
L 519.8976 422.290286 
Q 517.248 422.290286 517.248 419.862857 
L 517.248 410.153143 
Q 517.248 407.725714 519.8976 407.725714 
z
" clip-path="url(#p15bc4d9951)" style="fill: #e8f6f3; stroke: #148f77; stroke-linejoin: miter"/>
   </g>
   <g id="patch_8">
    <path d="M 107.8848 31.474286 
L 436.4352 31.474286 
Q 444.384 31.474286 444.384 38.756571 
L 444.384 97.014857 
Q 444.384 104.297143 436.4352 104.297143 
L 107.8848 104.297143 
Q 99.936 104.297143 99.936 97.014857 
L 99.936 38.756571 
Q 99.936 31.474286 107.8848 31.474286 
z
" clip-path="url(#p15bc4d9951)" style="fill: #f2f4f6; stroke: #7f8c8d; stroke-width: 1.3; stroke-linejoin: miter"/>
   </g>
   <g id="patch_9">
    <path d="M 107.8848 128.571429 
L 436.4352 128.571429 
Q 444.384 128.571429 444.384 135.853714 
L 444.384 230.523429 
Q 444.384 237.805714 436.4352 237.805714 
L 107.8848 237.805714 
Q 99.936 237.805714 99.936 230.523429 
L 99.936 135.853714 
Q 99.936 128.571429 107.8848 128.571429 
z
" clip-path="url(#p15bc4d9951)" style="fill: #fdf3e3; stroke: #b9770e; stroke-width: 1.3; stroke-linejoin: miter"/>
   </g>
   <g id="patch_10">
    <path d="M 107.8848 262.08 
L 436.4352 262.08 
Q 444.384 262.08 444.384 269.362286 
L 444.384 327.620571 
Q 444.384 334.902857 436.4352 334.902857 
L 107.8848 334.902857 
Q 99.936 334.902857 99.936 327.620571 
L 99.936 269.362286 
Q 99.936 262.08 107.8848 262.08 
z
" clip-path="url(#p15bc4d9951)" style="fill: #fdeaea; stroke: #c0392b; stroke-width: 1.3; stroke-linejoin: miter"/>
   </g>
   <g id="patch_11">
    <path d="M 505.3248 134.64 
L 648.4032 134.64 
Q 656.352 134.64 656.352 141.922286 
L 656.352 224.454857 
Q 656.352 231.737143 648.4032 231.737143 
L 505.3248 231.737143 
Q 497.376 231.737143 497.376 224.454857 
L 497.376 141.922286 
Q 497.376 134.64 505.3248 134.64 
z
" clip-path="url(#p15bc4d9951)" style="fill: #e8f6f3; stroke: #148f77; stroke-width: 1.3; stroke-linejoin: miter"/>
   </g>
   <g id="text_1">
    <!-- TTC 큼 -->
    <g style="fill: #4a4a4a" transform="translate(33.330797 31.474286) scale(0.09 -0.09)">
     <defs>
      <path id="MalgunGothic-54" d="M 3294 4134 
L 1966 4134 
L 1966 0 
L 1456 0 
L 1456 4134 
L 134 4134 
L 134 4600 
L 3294 4600 
L 3294 4134 
z
" transform="scale(0.015625)"/>
      <path id="MalgunGothic-43" d="M 3725 197 
Q 3216 -78 2459 -78 
Q 1488 -78 897 561 
Q 306 1200 306 2213 
Q 306 3281 959 3978 
Q 1613 4675 2644 4675 
Q 3297 4675 3725 4484 
L 3725 3941 
Q 3234 4213 2634 4213 
Q 1813 4213 1325 3659 
Q 838 3106 838 2241 
Q 838 1413 1297 897 
Q 1756 381 2522 381 
Q 3216 381 3725 688 
L 3725 197 
z
" transform="scale(0.015625)"/>
      <path id="MalgunGothic-20" transform="scale(0.015625)"/>
      <path id="MalgunGothic-d07c" d="M 403 2463 
L 403 2881 
L 4659 2881 
Q 4678 3016 4697 3775 
L 1209 3603 
L 1081 4031 
L 4703 4159 
L 4709 4553 
L 4709 4850 
L 1344 4850 
L 1344 5259 
L 5178 5259 
Q 5178 3647 5106 2881 
L 5997 2881 
L 5997 2463 
L 403 2463 
z
M 1338 -384 
L 1338 1806 
L 5063 1806 
L 5063 -384 
L 1338 -384 
z
M 4603 1388 
L 1797 1388 
L 1797 25 
L 4603 25 
L 4603 1388 
z
" transform="scale(0.015625)"/>
     </defs>
     <use xlink:href="#MalgunGothic-54"/>
     <use xlink:href="#MalgunGothic-54" transform="translate(55.369141 0)"/>
     <use xlink:href="#MalgunGothic-43" transform="translate(103.863281 0)"/>
     <use xlink:href="#MalgunGothic-20" transform="translate(167.339844 0)"/>
     <use xlink:href="#MalgunGothic-d07c" transform="translate(202.496094 0)"/>
    </g>
   </g>
   <g id="text_2">
    <!-- TTC 작음 -->
    <g style="fill: #4a4a4a" transform="translate(28.830797 365.245714) scale(0.09 -0.09)">
     <defs>
      <path id="MalgunGothic-c791" d="M 5125 3391 
L 5125 1978 
L 4659 1978 
L 4659 5466 
L 5125 5466 
L 5125 3816 
L 6034 3816 
L 6034 3391 
L 5125 3391 
z
M 3591 2344 
Q 2588 2891 2188 3713 
Q 2022 3328 1612 2889 
Q 1203 2450 750 2194 
L 416 2509 
Q 1097 2850 1525 3419 
Q 1953 3988 1953 4603 
L 1953 4781 
L 622 4781 
L 622 5197 
L 3731 5197 
L 3731 4781 
L 2400 4781 
L 2400 4603 
Q 2400 4006 2836 3484 
Q 3272 2963 3909 2694 
L 3591 2344 
z
M 4659 -563 
L 4659 1222 
L 1259 1222 
L 1259 1644 
L 5125 1644 
L 5125 -563 
L 4659 -563 
z
" transform="scale(0.015625)"/>
      <path id="MalgunGothic-c74c" d="M 3200 3103 
Q 2291 3103 1798 3426 
Q 1306 3750 1306 4269 
Q 1306 4788 1798 5111 
Q 2291 5434 3200 5434 
Q 4109 5434 4601 5111 
Q 5094 4788 5094 4269 
Q 5094 3750 4601 3426 
Q 4109 3103 3200 3103 
z
M 3200 5038 
Q 2525 5038 2161 4831 
Q 1797 4625 1797 4269 
Q 1797 3913 2161 3706 
Q 2525 3500 3200 3500 
Q 3875 3500 4239 3706 
Q 4603 3913 4603 4269 
Q 4603 4625 4239 4831 
Q 3875 5038 3200 5038 
z
M 403 2175 
L 403 2591 
L 5997 2591 
L 5997 2175 
L 403 2175 
z
M 1325 -384 
L 1325 1625 
L 5075 1625 
L 5075 -384 
L 1325 -384 
z
M 4609 1209 
L 1791 1209 
L 1791 31 
L 4609 31 
L 4609 1209 
z
" transform="scale(0.015625)"/>
     </defs>
     <use xlink:href="#MalgunGothic-54"/>
     <use xlink:href="#MalgunGothic-54" transform="translate(55.369141 0)"/>
     <use xlink:href="#MalgunGothic-43" transform="translate(103.863281 0)"/>
     <use xlink:href="#MalgunGothic-20" transform="translate(167.339844 0)"/>
     <use xlink:href="#MalgunGothic-c791" transform="translate(202.496094 0)"/>
     <use xlink:href="#MalgunGothic-c74c" transform="translate(302.496094 0)"/>
    </g>
   </g>
   <g id="text_3">
    <!-- 상한 게이트 -->
    <g style="fill: #1a1a1a" transform="translate(242.726406 52.555469) scale(0.11 -0.11)">
     <defs>
      <path id="MalgunGothic-c0c1" d="M 5125 3391 
L 5125 1991 
L 4659 1991 
L 4659 5466 
L 5125 5466 
L 5125 3816 
L 6034 3816 
L 6034 3391 
L 5125 3391 
z
M 3603 2316 
Q 3206 2528 2778 2934 
Q 2350 3341 2188 3681 
Q 2022 3291 1609 2852 
Q 1197 2413 750 2163 
L 409 2484 
Q 1072 2806 1512 3397 
Q 1953 3988 1953 4628 
L 1953 5259 
L 2400 5259 
L 2400 4628 
Q 2400 4025 2845 3472 
Q 3291 2919 3909 2656 
L 3603 2316 
z
M 3263 -513 
Q 2322 -513 1811 -186 
Q 1300 141 1300 659 
Q 1300 1175 1812 1500 
Q 2325 1825 3263 1825 
Q 4203 1825 4715 1501 
Q 5228 1178 5228 659 
Q 5228 138 4717 -187 
Q 4206 -513 3263 -513 
z
M 3263 1428 
Q 2563 1428 2180 1215 
Q 1797 1003 1797 659 
Q 1797 309 2181 96 
Q 2566 -116 3263 -116 
Q 3969 -116 4353 98 
Q 4738 313 4738 659 
Q 4738 1000 4353 1214 
Q 3969 1428 3263 1428 
z
" transform="scale(0.015625)"/>
      <path id="MalgunGothic-d55c" d="M 5125 2713 
L 5125 978 
L 4659 978 
L 4659 5466 
L 5125 5466 
L 5125 3138 
L 6034 3138 
L 6034 2713 
L 5125 2713 
z
M 447 4244 
L 447 4659 
L 2003 4659 
L 2003 5441 
L 2478 5441 
L 2478 4659 
L 4031 4659 
L 4031 4244 
L 447 4244 
z
M 2241 1650 
Q 1559 1650 1161 1979 
Q 763 2309 763 2791 
Q 763 3266 1161 3594 
Q 1559 3922 2247 3922 
Q 2931 3922 3331 3595 
Q 3731 3269 3731 2791 
Q 3731 2316 3329 1983 
Q 2928 1650 2241 1650 
z
M 2247 3525 
Q 1772 3525 1497 3319 
Q 1222 3113 1222 2791 
Q 1222 2466 1498 2256 
Q 1775 2047 2247 2047 
Q 2719 2047 2995 2256 
Q 3272 2466 3272 2791 
Q 3272 3113 2997 3319 
Q 2722 3525 2247 3525 
z
M 1459 -453 
L 1459 1216 
L 1919 1216 
L 1919 -38 
L 5313 -38 
L 5313 -453 
L 1459 -453 
z
" transform="scale(0.015625)"/>
      <path id="MalgunGothic-ac8c" d="M 5044 -563 
L 5044 5466 
L 5509 5466 
L 5509 -563 
L 5044 -563 
z
M 3938 -366 
L 3938 2859 
L 2797 2859 
L 2797 3278 
L 3938 3278 
L 3938 5344 
L 4397 5344 
L 4397 -366 
L 3938 -366 
z
M 3078 4941 
Q 2981 2394 813 878 
L 441 1197 
Q 1263 1634 1891 2575 
Q 2519 3516 2584 4531 
L 800 4531 
L 800 4941 
L 3078 4941 
z
" transform="scale(0.015625)"/>
      <path id="MalgunGothic-c774" d="M 4947 -563 
L 4947 5466 
L 5416 5466 
L 5416 -563 
L 4947 -563 
z
M 2284 959 
Q 1597 959 1173 1514 
Q 750 2069 750 3016 
Q 750 3975 1169 4522 
Q 1588 5069 2284 5069 
Q 2978 5069 3403 4522 
Q 3828 3975 3828 3016 
Q 3828 2063 3401 1511 
Q 2975 959 2284 959 
z
M 2284 4653 
Q 1803 4653 1503 4204 
Q 1203 3756 1203 3016 
Q 1203 2278 1506 1826 
Q 1809 1375 2284 1375 
Q 2756 1375 3061 1828 
Q 3366 2281 3366 3016 
Q 3366 3759 3067 4206 
Q 2769 4653 2284 4653 
z
" transform="scale(0.015625)"/>
      <path id="MalgunGothic-d2b8" d="M 5131 4469 
L 1766 4469 
L 1766 3597 
L 4959 3597 
L 4959 3181 
L 1766 3181 
L 1766 2356 
L 5228 2356 
L 5228 1941 
L 1306 1941 
L 1306 4878 
L 5131 4878 
L 5131 4469 
z
M 403 384 
L 403 800 
L 5997 800 
L 5997 384 
L 403 384 
z
" transform="scale(0.015625)"/>
     </defs>
     <use xlink:href="#MalgunGothic-c0c1"/>
     <use xlink:href="#MalgunGothic-d55c" transform="translate(100 0)"/>
     <use xlink:href="#MalgunGothic-20" transform="translate(200 0)"/>
     <use xlink:href="#MalgunGothic-ac8c" transform="translate(235.15625 0)"/>
     <use xlink:href="#MalgunGothic-c774" transform="translate(335.15625 0)"/>
     <use xlink:href="#MalgunGothic-d2b8" transform="translate(435.15625 0)"/>
    </g>
   </g>
   <g id="text_4">
    <!-- 멀고 접근 안 함 → 무조건 레벨 0 -->
    <g style="fill: #4a4a4a" transform="translate(204.831562 70.238371) scale(0.09 -0.09)">
     <defs>
      <path id="MalgunGothic-ba40" d="M 878 2625 
L 878 5241 
L 3628 5241 
L 3628 4109 
L 4884 4109 
L 4884 5466 
L 5350 5466 
L 5350 2400 
L 4884 2400 
L 4884 3688 
L 3628 3688 
L 3628 2625 
L 878 2625 
z
M 3169 4819 
L 1338 4819 
L 1338 3041 
L 3169 3041 
L 3169 4819 
z
M 1638 -422 
L 1638 1044 
L 4891 1044 
L 4891 1650 
L 1638 1650 
L 1638 2069 
L 5350 2069 
L 5350 634 
L 2106 634 
L 2106 -6 
L 5516 -6 
L 5516 -422 
L 1638 -422 
z
" transform="scale(0.015625)"/>
      <path id="MalgunGothic-ace0" d="M 4959 1656 
L 4506 1697 
Q 4616 2694 4616 3534 
L 4616 4475 
L 1216 4475 
L 1216 4897 
L 5081 4897 
L 5081 3525 
Q 5081 2613 4959 1656 
z
M 403 513 
L 403 934 
L 2625 934 
L 2625 2900 
L 3091 2900 
L 3091 934 
L 5997 934 
L 5997 513 
L 403 513 
z
" transform="scale(0.015625)"/>
      <path id="MalgunGothic-c811" d="M 4878 2297 
L 4878 3706 
L 3469 3706 
L 3469 4122 
L 4878 4122 
L 4878 5466 
L 5344 5466 
L 5344 2297 
L 4878 2297 
z
M 3653 2363 
Q 3253 2581 2837 2978 
Q 2422 3375 2253 3731 
Q 2081 3344 1673 2901 
Q 1266 2459 819 2209 
L 488 2528 
Q 1141 2844 1575 3433 
Q 2009 4022 2009 4659 
L 2009 4781 
L 684 4781 
L 684 5197 
L 3788 5197 
L 3788 4781 
L 2463 4781 
L 2463 4659 
Q 2463 4063 2914 3506 
Q 3366 2950 3969 2700 
L 3653 2363 
z
M 1606 -397 
L 1606 1972 
L 2075 1972 
L 2075 1141 
L 4884 1141 
L 4884 1972 
L 5344 1972 
L 5344 -397 
L 1606 -397 
z
M 4884 722 
L 2075 722 
L 2075 13 
L 4884 13 
L 4884 722 
z
" transform="scale(0.015625)"/>
      <path id="MalgunGothic-adfc" d="M 403 2356 
L 403 2772 
L 4563 2772 
Q 4634 3506 4634 4744 
L 1338 4744 
L 1338 5159 
L 5100 5159 
Q 5100 3575 5025 2772 
L 5997 2772 
L 5997 2356 
L 403 2356 
z
M 1381 -306 
L 1381 1716 
L 1850 1716 
L 1850 116 
L 5184 116 
L 5184 -306 
L 1381 -306 
z
" transform="scale(0.015625)"/>
      <path id="MalgunGothic-c548" d="M 5131 3109 
L 5131 1069 
L 4666 1069 
L 4666 5466 
L 5131 5466 
L 5131 3534 
L 6041 3534 
L 6041 3109 
L 5131 3109 
z
M 2188 2188 
Q 1519 2188 1070 2611 
Q 622 3034 622 3706 
Q 622 4381 1067 4798 
Q 1513 5216 2188 5216 
Q 2866 5216 3308 4797 
Q 3750 4378 3750 3706 
Q 3750 3038 3304 2613 
Q 2859 2188 2188 2188 
z
M 2188 4819 
Q 1694 4819 1384 4516 
Q 1075 4213 1075 3706 
Q 1075 3200 1383 2895 
Q 1691 2591 2188 2591 
Q 2684 2591 2993 2895 
Q 3303 3200 3303 3706 
Q 3303 4213 2993 4516 
Q 2684 4819 2188 4819 
z
M 1381 -359 
L 1381 1619 
L 1856 1619 
L 1856 56 
L 5319 56 
L 5319 -359 
L 1381 -359 
z
" transform="scale(0.015625)"/>
      <path id="MalgunGothic-d568" d="M 447 4306 
L 447 4716 
L 1997 4716 
L 1997 5497 
L 2463 5497 
L 2463 4716 
L 4013 4716 
L 4013 4306 
L 447 4306 
z
M 5125 3150 
L 5125 1869 
L 4659 1869 
L 4659 5466 
L 5125 5466 
L 5125 3572 
L 6034 3572 
L 6034 3150 
L 5125 3150 
z
M 2241 1966 
Q 1544 1966 1150 2252 
Q 756 2538 756 2994 
Q 756 3453 1154 3742 
Q 1553 4031 2247 4031 
Q 2941 4031 3339 3742 
Q 3738 3453 3738 2994 
Q 3738 2544 3339 2255 
Q 2941 1966 2241 1966 
z
M 2247 3634 
Q 1763 3634 1489 3456 
Q 1216 3278 1216 2994 
Q 1216 2713 1487 2538 
Q 1759 2363 2247 2363 
Q 2734 2363 3006 2538 
Q 3278 2713 3278 2994 
Q 3278 3278 3004 3456 
Q 2731 3634 2247 3634 
z
M 1428 -453 
L 1428 1538 
L 5125 1538 
L 5125 -453 
L 1428 -453 
z
M 4666 1125 
L 1888 1125 
L 1888 -38 
L 4666 -38 
L 4666 1125 
z
" transform="scale(0.015625)"/>
      <path id="MalgunGothic-2192" d="M 4697 2106 
Q 4269 2403 4050 2881 
L 4347 3028 
Q 4522 2616 4886 2337 
Q 5250 2059 5625 2059 
L 5625 1778 
Q 5253 1778 4887 1503 
Q 4522 1228 4347 813 
L 4050 959 
Q 4247 1406 4703 1741 
L 453 1741 
L 453 2106 
L 4697 2106 
z
" transform="scale(0.015625)"/>
      <path id="MalgunGothic-bb34" d="M 1331 2919 
L 1331 5247 
L 5063 5247 
L 5063 2919 
L 1331 2919 
z
M 4603 4831 
L 1791 4831 
L 1791 3334 
L 4603 3334 
L 4603 4831 
z
M 3438 1691 
L 3438 -563 
L 2963 -563 
L 2963 1691 
L 403 1691 
L 403 2106 
L 5997 2106 
L 5997 1691 
L 3438 1691 
z
" transform="scale(0.015625)"/>
      <path id="MalgunGothic-c870" d="M 3438 4494 
L 3438 4441 
Q 3438 3903 4070 3286 
Q 4703 2669 5759 2425 
L 5428 2041 
Q 4684 2275 4050 2754 
Q 3416 3234 3194 3688 
Q 2963 3231 2341 2759 
Q 1719 2288 972 2034 
L 641 2419 
Q 1666 2628 2311 3268 
Q 2956 3909 2956 4441 
L 2956 4494 
L 1025 4494 
L 1025 4909 
L 5375 4909 
L 5375 4494 
L 3438 4494 
z
M 403 391 
L 403 800 
L 2963 800 
L 2963 2322 
L 3438 2322 
L 3438 800 
L 5997 800 
L 5997 391 
L 403 391 
z
" transform="scale(0.015625)"/>
      <path id="MalgunGothic-ac74" d="M 4947 1056 
L 4947 3078 
L 3559 3078 
L 3559 3494 
L 4947 3494 
L 4947 5466 
L 5416 5466 
L 5416 1056 
L 4947 1056 
z
M 3616 5081 
Q 3488 3963 2752 3100 
Q 2016 2238 856 1734 
L 544 2113 
Q 1509 2459 2201 3142 
Q 2894 3825 3066 4666 
L 941 4666 
L 941 5081 
L 3616 5081 
z
M 1722 -325 
L 1722 1575 
L 2188 1575 
L 2188 97 
L 5588 97 
L 5588 -325 
L 1722 -325 
z
" transform="scale(0.015625)"/>
      <path id="MalgunGothic-b808" d="M 5088 -563 
L 5088 5466 
L 5563 5466 
L 5563 -563 
L 5088 -563 
z
M 4000 -403 
L 4000 2509 
L 3144 2509 
L 3144 2925 
L 4000 2925 
L 4000 5344 
L 4459 5344 
L 4459 -403 
L 4000 -403 
z
M 769 722 
L 769 3144 
L 2438 3144 
L 2438 4506 
L 769 4506 
L 769 4922 
L 2906 4922 
L 2906 2741 
L 1234 2741 
L 1234 1141 
Q 2822 1141 3284 1222 
L 3334 825 
Q 2728 722 769 722 
z
" transform="scale(0.015625)"/>
      <path id="MalgunGothic-bca8" d="M 5056 2338 
L 5056 5466 
L 5522 5466 
L 5522 2338 
L 5056 2338 
z
M 763 2663 
L 763 5288 
L 1222 5288 
L 1222 4313 
L 2784 4313 
L 2784 5288 
L 3244 5288 
L 3244 4084 
L 4013 4084 
L 4013 5344 
L 4475 5344 
L 4475 2328 
L 4013 2328 
L 4013 3659 
L 3244 3659 
L 3244 2663 
L 763 2663 
z
M 2784 3903 
L 1222 3903 
L 1222 3072 
L 2784 3072 
L 2784 3903 
z
M 1747 -422 
L 1747 1025 
L 5063 1025 
L 5063 1588 
L 1747 1588 
L 1747 1997 
L 5522 1997 
L 5522 616 
L 2209 616 
L 2209 -6 
L 5684 -6 
L 5684 -422 
L 1747 -422 
z
" transform="scale(0.015625)"/>
      <path id="MalgunGothic-30" d="M 278 2206 
Q 278 3425 675 4050 
Q 1072 4675 1819 4675 
Q 3253 4675 3253 2319 
Q 3253 1156 2854 539 
Q 2456 -78 1716 -78 
Q 1016 -78 647 520 
Q 278 1119 278 2206 
z
M 784 2231 
Q 784 344 1769 344 
Q 2747 344 2747 2259 
Q 2747 4250 1794 4250 
Q 784 4250 784 2231 
z
" transform="scale(0.015625)"/>
     </defs>
     <use xlink:href="#MalgunGothic-ba40"/>
     <use xlink:href="#MalgunGothic-ace0" transform="translate(100 0)"/>
     <use xlink:href="#MalgunGothic-20" transform="translate(200 0)"/>
     <use xlink:href="#MalgunGothic-c811" transform="translate(235.15625 0)"/>
     <use xlink:href="#MalgunGothic-adfc" transform="translate(335.15625 0)"/>
     <use xlink:href="#MalgunGothic-20" transform="translate(435.15625 0)"/>
     <use xlink:href="#MalgunGothic-c548" transform="translate(470.3125 0)"/>
     <use xlink:href="#MalgunGothic-20" transform="translate(570.3125 0)"/>
     <use xlink:href="#MalgunGothic-d568" transform="translate(605.46875 0)"/>
     <use xlink:href="#MalgunGothic-20" transform="translate(705.46875 0)"/>
     <use xlink:href="#MalgunGothic-2192" transform="translate(740.625 0)"/>
     <use xlink:href="#MalgunGothic-20" transform="translate(835.644531 0)"/>
     <use xlink:href="#MalgunGothic-bb34" transform="translate(870.800781 0)"/>
     <use xlink:href="#MalgunGothic-c870" transform="translate(970.800781 0)"/>
     <use xlink:href="#MalgunGothic-ac74" transform="translate(1070.800781 0)"/>
     <use xlink:href="#MalgunGothic-20" transform="translate(1170.800781 0)"/>
     <use xlink:href="#MalgunGothic-b808" transform="translate(1205.957031 0)"/>
     <use xlink:href="#MalgunGothic-bca8" transform="translate(1305.957031 0)"/>
     <use xlink:href="#MalgunGothic-20" transform="translate(1405.957031 0)"/>
     <use xlink:href="#MalgunGothic-30" transform="translate(1441.113281 0)"/>
    </g>
   </g>
   <g id="text_5">
    <!-- 재봤더니 손해라 넣지 않음 -->
    <g style="fill: #4a4a4a" transform="translate(217.913906 88.444085) scale(0.09 -0.09)">
     <defs>
      <path id="MalgunGothic-c7ac" d="M 5069 -563 
L 5069 2375 
L 4353 2375 
L 4353 -378 
L 3891 -378 
L 3891 5344 
L 4353 5344 
L 4353 2791 
L 5069 2791 
L 5069 5466 
L 5538 5466 
L 5538 -563 
L 5069 -563 
z
M 3181 884 
Q 2791 1266 2461 1781 
Q 2131 2297 2041 2681 
Q 1959 2263 1606 1722 
Q 1253 1181 838 800 
L 475 1088 
Q 1016 1478 1420 2233 
Q 1825 2988 1825 3750 
L 1825 4525 
L 691 4525 
L 691 4941 
L 3425 4941 
L 3425 4525 
L 2284 4525 
L 2284 3756 
Q 2284 3006 2648 2281 
Q 3013 1556 3531 1184 
L 3181 884 
z
" transform="scale(0.015625)"/>
      <path id="MalgunGothic-bd24" d="M 5203 3238 
L 5203 1838 
L 4738 1838 
L 4738 5466 
L 5203 5466 
L 5203 3653 
L 6169 3653 
L 6169 3238 
L 5203 3238 
z
M 4403 2075 
Q 3978 2041 2562 2006 
Q 1147 1972 403 1972 
L 359 2381 
Q 1053 2381 2163 2406 
L 2163 3084 
L 959 3084 
L 959 5325 
L 1428 5325 
L 1428 4653 
L 3334 4653 
L 3334 5325 
L 3803 5325 
L 3803 3084 
L 2638 3084 
L 2638 2413 
Q 3900 2444 4384 2478 
L 4403 2075 
z
M 3334 4231 
L 1428 4231 
L 1428 3506 
L 3334 3506 
L 3334 4231 
z
M 5434 -544 
Q 4622 -116 4306 488 
Q 4041 -122 3213 -575 
L 2853 -269 
Q 3369 -50 3733 390 
Q 4097 831 4097 1319 
L 4097 1556 
L 4550 1556 
L 4550 1319 
Q 4550 816 4900 400 
Q 5250 -16 5784 -213 
L 5434 -544 
z
M 2906 -91 
Q 2344 188 2138 513 
Q 2006 216 1668 -98 
Q 1331 -413 978 -563 
L 603 -250 
Q 1153 -44 1512 375 
Q 1872 794 1881 1294 
L 1881 1528 
L 2338 1528 
L 2338 1294 
Q 2338 541 3256 238 
L 2906 -91 
z
" transform="scale(0.015625)"/>
      <path id="MalgunGothic-b354" d="M 4891 -563 
L 4891 2859 
L 3116 2859 
L 3116 3272 
L 4891 3272 
L 4891 5466 
L 5356 5466 
L 5356 -563 
L 4891 -563 
z
M 4172 1141 
Q 3694 1084 3136 1070 
Q 2578 1056 928 1056 
L 928 4984 
L 3841 4984 
L 3841 4563 
L 1394 4563 
L 1394 1472 
Q 3638 1472 4141 1544 
L 4172 1141 
z
" transform="scale(0.015625)"/>
      <path id="MalgunGothic-b2c8" d="M 4947 -563 
L 4947 5466 
L 5416 5466 
L 5416 -563 
L 4947 -563 
z
M 4488 1344 
Q 4000 1203 1056 1203 
L 1056 4953 
L 1522 4953 
L 1522 1619 
L 1934 1619 
Q 3775 1619 4428 1747 
L 4488 1344 
z
" transform="scale(0.015625)"/>
      <path id="MalgunGothic-c190" d="M 5459 3059 
Q 4756 3163 4125 3533 
Q 3494 3903 3206 4334 
Q 2956 3944 2307 3553 
Q 1659 3163 972 3066 
L 697 3444 
Q 1628 3525 2298 4020 
Q 2969 4516 2969 4966 
L 2969 5203 
L 3431 5203 
L 3431 4959 
Q 3431 4506 4095 4007 
Q 4759 3509 5703 3438 
L 5459 3059 
z
M 403 1753 
L 403 2169 
L 2963 2169 
L 2963 3263 
L 3438 3263 
L 3438 2169 
L 5997 2169 
L 5997 1753 
L 403 1753 
z
M 1325 -378 
L 1325 1344 
L 1791 1344 
L 1791 38 
L 5203 38 
L 5203 -378 
L 1325 -378 
z
" transform="scale(0.015625)"/>
      <path id="MalgunGothic-d574" d="M 5119 -563 
L 5119 2272 
L 4403 2272 
L 4403 -372 
L 3944 -372 
L 3944 5350 
L 4403 5350 
L 4403 2688 
L 5119 2688 
L 5119 5466 
L 5588 5466 
L 5588 -563 
L 5119 -563 
z
M 416 3969 
L 416 4384 
L 1753 4384 
L 1753 5319 
L 2222 5319 
L 2222 4384 
L 3559 4384 
L 3559 3969 
L 416 3969 
z
M 2003 897 
Q 1434 897 1046 1270 
Q 659 1644 659 2222 
Q 659 2794 1045 3170 
Q 1431 3547 2003 3547 
Q 2572 3547 2956 3173 
Q 3341 2800 3341 2222 
Q 3341 1638 2955 1267 
Q 2569 897 2003 897 
z
M 2003 3138 
Q 1603 3138 1354 2878 
Q 1106 2619 1106 2222 
Q 1106 1819 1356 1562 
Q 1606 1306 2003 1306 
Q 2394 1306 2647 1561 
Q 2900 1816 2900 2222 
Q 2900 2622 2648 2880 
Q 2397 3138 2003 3138 
z
" transform="scale(0.015625)"/>
      <path id="MalgunGothic-b77c" d="M 5094 2503 
L 5094 -563 
L 4628 -563 
L 4628 5466 
L 5094 5466 
L 5094 2925 
L 6138 2925 
L 6138 2503 
L 5094 2503 
z
M 806 794 
L 806 3169 
L 3003 3169 
L 3003 4506 
L 806 4506 
L 806 4922 
L 3469 4922 
L 3469 2759 
L 1275 2759 
L 1275 1203 
Q 3419 1203 4063 1338 
L 4128 928 
Q 3284 794 806 794 
z
" transform="scale(0.015625)"/>
      <path id="MalgunGothic-b123" d="M 4884 2272 
L 4884 4109 
L 3138 4109 
L 3138 4513 
L 4884 4513 
L 4884 5466 
L 5350 5466 
L 5350 2272 
L 4884 2272 
z
M 4325 2931 
Q 3891 2856 3358 2836 
Q 2825 2816 1106 2816 
L 1106 5325 
L 1569 5325 
L 1569 3225 
Q 3509 3225 4269 3334 
L 4325 2931 
z
M 1331 1459 
L 1331 1869 
L 3194 1869 
L 3194 2503 
L 3653 2503 
L 3653 1869 
L 5516 1869 
L 5516 1459 
L 1331 1459 
z
M 3425 -500 
Q 2578 -500 2134 -278 
Q 1691 -56 1691 366 
Q 1691 769 2116 995 
Q 2541 1222 3425 1222 
Q 5166 1222 5166 334 
Q 5166 -66 4717 -283 
Q 4269 -500 3425 -500 
z
M 3425 838 
Q 2175 838 2175 372 
Q 2175 -116 3425 -116 
Q 4672 -116 4672 341 
Q 4672 838 3425 838 
z
" transform="scale(0.015625)"/>
      <path id="MalgunGothic-c9c0" d="M 4884 -563 
L 4884 5466 
L 5350 5466 
L 5350 -563 
L 4884 -563 
z
M 3775 909 
Q 3228 1338 2822 1881 
Q 2416 2425 2297 2859 
Q 2178 2397 1756 1814 
Q 1334 1231 825 825 
L 475 1147 
Q 1191 1638 1625 2425 
Q 2059 3213 2059 4019 
L 2059 4525 
L 716 4525 
L 716 4941 
L 3884 4941 
L 3884 4525 
L 2528 4525 
L 2528 4038 
Q 2528 3238 2968 2459 
Q 3409 1681 4097 1269 
L 3775 909 
z
" transform="scale(0.015625)"/>
      <path id="MalgunGothic-c54a" d="M 5131 3769 
L 5131 2553 
L 4666 2553 
L 4666 5466 
L 5131 5466 
L 5131 4184 
L 6041 4184 
L 6041 3769 
L 5131 3769 
z
M 2156 2566 
Q 1475 2566 1051 2964 
Q 628 3363 628 3969 
Q 628 4575 1053 4972 
Q 1478 5369 2156 5369 
Q 2831 5369 3259 4972 
Q 3688 4575 3688 3969 
Q 3688 3366 3259 2966 
Q 2831 2566 2156 2566 
z
M 2156 4966 
Q 1675 4966 1384 4691 
Q 1094 4416 1094 3969 
Q 1094 3516 1384 3242 
Q 1675 2969 2156 2969 
Q 2638 2969 2928 3242 
Q 3219 3516 3219 3969 
Q 3219 4416 2928 4691 
Q 2638 4966 2156 4966 
z
M 2650 1453 
L 2650 1863 
L 3903 1863 
L 3903 2497 
L 4372 2497 
L 4372 1863 
L 5631 1863 
L 5631 1453 
L 2650 1453 
z
M 2828 -281 
Q 2150 -347 1088 -347 
L 1088 2016 
L 1550 2016 
L 1550 56 
Q 2250 56 2809 116 
L 2828 -281 
z
M 4141 -453 
Q 3575 -453 3250 -226 
Q 2925 0 2925 378 
Q 2925 753 3253 981 
Q 3581 1209 4141 1209 
Q 4700 1209 5028 981 
Q 5356 753 5356 378 
Q 5356 0 5031 -226 
Q 4706 -453 4141 -453 
z
M 4141 831 
Q 3778 831 3575 703 
Q 3372 575 3372 378 
Q 3372 178 3573 47 
Q 3775 -84 4141 -84 
Q 4506 -84 4707 48 
Q 4909 181 4909 378 
Q 4909 569 4706 700 
Q 4503 831 4141 831 
z
" transform="scale(0.015625)"/>
     </defs>
     <use xlink:href="#MalgunGothic-c7ac"/>
     <use xlink:href="#MalgunGothic-bd24" transform="translate(100 0)"/>
     <use xlink:href="#MalgunGothic-b354" transform="translate(200 0)"/>
     <use xlink:href="#MalgunGothic-b2c8" transform="translate(300 0)"/>
     <use xlink:href="#MalgunGothic-20" transform="translate(400 0)"/>
     <use xlink:href="#MalgunGothic-c190" transform="translate(435.15625 0)"/>
     <use xlink:href="#MalgunGothic-d574" transform="translate(535.15625 0)"/>
     <use xlink:href="#MalgunGothic-b77c" transform="translate(635.15625 0)"/>
     <use xlink:href="#MalgunGothic-20" transform="translate(735.15625 0)"/>
     <use xlink:href="#MalgunGothic-b123" transform="translate(770.3125 0)"/>
     <use xlink:href="#MalgunGothic-c9c0" transform="translate(870.3125 0)"/>
     <use xlink:href="#MalgunGothic-20" transform="translate(970.3125 0)"/>
     <use xlink:href="#MalgunGothic-c54a" transform="translate(1005.46875 0)"/>
     <use xlink:href="#MalgunGothic-c74c" transform="translate(1105.46875 0)"/>
    </g>
   </g>
   <g id="text_6">
    <!-- AI 조건부 판단 -->
    <g style="fill: #1a1a1a" transform="translate(235.687266 153.293754) scale(0.11 -0.11)">
     <defs>
      <path id="MalgunGothic-41" d="M 4134 0 
L 3575 0 
L 3075 1306 
L 1103 1306 
L 638 0 
L 75 0 
L 1844 4600 
L 2356 4600 
L 4134 0 
z
M 2903 1769 
L 2169 3756 
Q 2128 3866 2100 4059 
L 2084 4059 
Q 2050 3844 2009 3756 
L 1281 1769 
L 2903 1769 
z
" transform="scale(0.015625)"/>
      <path id="MalgunGothic-49" d="M 1116 0 
L 613 0 
L 613 4600 
L 1116 4600 
L 1116 0 
z
" transform="scale(0.015625)"/>
      <path id="MalgunGothic-bd80" d="M 1306 2822 
L 1306 5288 
L 1766 5288 
L 1766 4428 
L 4634 4428 
L 4634 5288 
L 5094 5288 
L 5094 2822 
L 1306 2822 
z
M 4634 4019 
L 1766 4019 
L 1766 3231 
L 4634 3231 
L 4634 4019 
z
M 3431 1619 
L 3431 -563 
L 2963 -563 
L 2963 1619 
L 403 1619 
L 403 2041 
L 5997 2041 
L 5997 1619 
L 3431 1619 
z
" transform="scale(0.015625)"/>
      <path id="MalgunGothic-d310" d="M 5125 3116 
L 5125 1063 
L 4659 1063 
L 4659 5466 
L 5125 5466 
L 5125 3534 
L 6034 3534 
L 6034 3116 
L 5125 3116 
z
M 634 4678 
L 634 5088 
L 3891 5088 
L 3891 4678 
L 634 4678 
z
M 4213 2284 
Q 4116 2259 3702 2234 
Q 3288 2209 3144 2209 
L 469 2209 
L 469 2619 
L 1275 2619 
L 1209 4384 
L 1663 4384 
L 1728 2619 
L 2797 2619 
L 2859 4384 
L 3309 4384 
L 3250 2625 
Q 3838 2625 4172 2688 
L 4213 2284 
z
M 1447 -341 
L 1447 1528 
L 1913 1528 
L 1913 78 
L 5294 78 
L 5294 -341 
L 1447 -341 
z
" transform="scale(0.015625)"/>
      <path id="MalgunGothic-b2e8" d="M 5125 3169 
L 5125 1063 
L 4659 1063 
L 4659 5466 
L 5125 5466 
L 5125 3584 
L 6034 3584 
L 6034 3169 
L 5125 3169 
z
M 3903 2363 
Q 3306 2291 850 2291 
L 850 5081 
L 3688 5081 
L 3688 4666 
L 1319 4666 
L 1319 2706 
Q 3244 2706 3872 2766 
L 3903 2363 
z
M 1459 -378 
L 1459 1581 
L 1925 1581 
L 1925 38 
L 5294 38 
L 5294 -378 
L 1459 -378 
z
" transform="scale(0.015625)"/>
     </defs>
     <use xlink:href="#MalgunGothic-41"/>
     <use xlink:href="#MalgunGothic-49" transform="translate(65.820312 0)"/>
     <use xlink:href="#MalgunGothic-20" transform="translate(92.822266 0)"/>
     <use xlink:href="#MalgunGothic-c870" transform="translate(127.978516 0)"/>
     <use xlink:href="#MalgunGothic-ac74" transform="translate(227.978516 0)"/>
     <use xlink:href="#MalgunGothic-bd80" transform="translate(327.978516 0)"/>
     <use xlink:href="#MalgunGothic-20" transform="translate(427.978516 0)"/>
     <use xlink:href="#MalgunGothic-d310" transform="translate(463.134766 0)"/>
     <use xlink:href="#MalgunGothic-b2e8" transform="translate(563.134766 0)"/>
    </g>
   </g>
   <g id="text_7">
    <!-- 각도 · 속도 · DCPA · 보행자 상태를 보고 -->
    <g style="fill: #4a4a4a" transform="translate(191.311875 174.617799) scale(0.09 -0.09)">
     <defs>
      <path id="MalgunGothic-ac01" d="M 5125 3438 
L 5125 2125 
L 4659 2125 
L 4659 5466 
L 5125 5466 
L 5125 3853 
L 6034 3853 
L 6034 3438 
L 5125 3438 
z
M 3513 5178 
Q 3344 3069 788 2003 
L 459 2375 
Q 1497 2703 2167 3365 
Q 2838 4028 2963 4763 
L 831 4763 
L 831 5178 
L 3513 5178 
z
M 4659 -563 
L 4659 1369 
L 1253 1369 
L 1253 1791 
L 5125 1791 
L 5125 -563 
L 4659 -563 
z
" transform="scale(0.015625)"/>
      <path id="MalgunGothic-b3c4" d="M 403 372 
L 403 788 
L 2963 788 
L 2963 2181 
L 1350 2181 
L 1350 4897 
L 5050 4897 
L 5050 4481 
L 1819 4481 
L 1819 2600 
L 5147 2600 
L 5147 2181 
L 3438 2181 
L 3438 788 
L 5997 788 
L 5997 372 
L 403 372 
z
" transform="scale(0.015625)"/>
      <path id="MalgunGothic-b7" d="M 700 1644 
Q 628 1644 565 1672 
Q 503 1700 456 1747 
Q 409 1794 382 1858 
Q 356 1922 356 1994 
Q 356 2066 382 2130 
Q 409 2194 456 2241 
Q 503 2288 565 2316 
Q 628 2344 700 2344 
Q 772 2344 834 2316 
Q 897 2288 944 2241 
Q 991 2194 1017 2130 
Q 1044 2066 1044 1994 
Q 1044 1925 1017 1861 
Q 991 1797 944 1748 
Q 897 1700 834 1672 
Q 772 1644 700 1644 
z
" transform="scale(0.015625)"/>
      <path id="MalgunGothic-c18d" d="M 5459 3284 
Q 4697 3403 4080 3768 
Q 3463 4134 3206 4519 
Q 2988 4172 2341 3792 
Q 1694 3413 972 3303 
L 697 3681 
Q 1641 3759 2305 4231 
Q 2969 4703 2969 5153 
L 2969 5356 
L 3431 5356 
L 3431 5153 
Q 3431 4706 4098 4220 
Q 4766 3734 5703 3653 
L 5459 3284 
z
M 403 2203 
L 403 2625 
L 2963 2625 
L 2963 3506 
L 3438 3506 
L 3438 2625 
L 5997 2625 
L 5997 2203 
L 403 2203 
z
M 4609 -563 
L 4609 1106 
L 1197 1106 
L 1197 1522 
L 5075 1522 
L 5075 -563 
L 4609 -563 
z
" transform="scale(0.015625)"/>
      <path id="MalgunGothic-44" d="M 609 0 
L 609 4600 
L 1856 4600 
Q 4281 4600 4281 2356 
Q 4281 1288 3587 644 
Q 2894 0 1800 0 
L 609 0 
z
M 1113 4134 
L 1113 463 
L 1813 463 
Q 2734 463 3243 958 
Q 3753 1453 3753 2344 
Q 3753 4134 1844 4134 
L 1113 4134 
z
" transform="scale(0.015625)"/>
      <path id="MalgunGothic-50" d="M 1113 1747 
L 1113 0 
L 609 0 
L 609 4600 
L 1850 4600 
Q 2575 4600 2979 4240 
Q 3384 3881 3384 3231 
Q 3384 2559 2909 2140 
Q 2434 1722 1728 1747 
L 1113 1747 
z
M 1113 4131 
L 1113 2219 
L 1691 2219 
Q 2256 2219 2554 2475 
Q 2853 2731 2853 3206 
Q 2853 4131 1759 4131 
L 1113 4131 
z
" transform="scale(0.015625)"/>
      <path id="MalgunGothic-bcf4" d="M 3438 2053 
L 3438 756 
L 5997 756 
L 5997 341 
L 403 341 
L 403 756 
L 2963 756 
L 2963 2053 
L 1306 2053 
L 1306 4947 
L 1772 4947 
L 1772 3903 
L 4628 3903 
L 4628 4947 
L 5088 4947 
L 5088 2053 
L 3438 2053 
z
M 4628 3481 
L 1772 3481 
L 1772 2478 
L 4628 2478 
L 4628 3481 
z
" transform="scale(0.015625)"/>
      <path id="MalgunGothic-d589" d="M 5075 1772 
L 5075 3231 
L 4372 3231 
L 4372 1947 
L 3909 1947 
L 3909 5344 
L 4372 5344 
L 4372 3641 
L 5075 3641 
L 5075 5466 
L 5538 5466 
L 5538 1772 
L 5075 1772 
z
M 459 4275 
L 459 4684 
L 1784 4684 
L 1784 5416 
L 2247 5416 
L 2247 4684 
L 3559 4684 
L 3559 4275 
L 459 4275 
z
M 2022 1997 
Q 1431 1997 1070 2284 
Q 709 2572 709 3003 
Q 709 3438 1071 3722 
Q 1434 4006 2022 4006 
Q 2609 4006 2971 3722 
Q 3334 3438 3334 3003 
Q 3334 2569 2976 2283 
Q 2619 1997 2022 1997 
z
M 2022 3622 
Q 1656 3622 1404 3448 
Q 1153 3275 1153 3003 
Q 1153 2738 1406 2563 
Q 1659 2388 2022 2388 
Q 2391 2388 2645 2563 
Q 2900 2738 2900 3003 
Q 2900 3275 2644 3448 
Q 2388 3622 2022 3622 
z
M 3547 -513 
Q 2556 -513 2036 -227 
Q 1516 59 1516 569 
Q 1516 1084 2037 1367 
Q 2559 1650 3547 1650 
Q 4534 1650 5054 1364 
Q 5575 1078 5575 569 
Q 5575 63 5056 -225 
Q 4538 -513 3547 -513 
z
M 3547 1253 
Q 2016 1253 2016 569 
Q 2016 -116 3547 -116 
Q 5081 -116 5081 569 
Q 5081 1253 3547 1253 
z
" transform="scale(0.015625)"/>
      <path id="MalgunGothic-c790" d="M 5094 2600 
L 5094 -563 
L 4628 -563 
L 4628 5466 
L 5094 5466 
L 5094 3016 
L 6138 3016 
L 6138 2600 
L 5094 2600 
z
M 3675 909 
Q 3228 1250 2808 1812 
Q 2388 2375 2247 2822 
Q 2125 2394 1712 1809 
Q 1300 1225 800 825 
L 441 1134 
Q 1100 1569 1551 2364 
Q 2003 3159 2003 3891 
L 2003 4525 
L 666 4525 
L 666 4941 
L 3775 4941 
L 3775 4525 
L 2463 4525 
L 2463 3922 
Q 2463 3188 2916 2434 
Q 3369 1681 4000 1259 
L 3675 909 
z
" transform="scale(0.015625)"/>
      <path id="MalgunGothic-d0dc" d="M 5106 -563 
L 5106 2572 
L 4331 2572 
L 4331 -378 
L 3872 -378 
L 3872 5344 
L 4331 5344 
L 4331 2988 
L 5106 2988 
L 5106 5466 
L 5575 5466 
L 5575 -563 
L 5106 -563 
z
M 1288 2797 
L 1288 1416 
L 1525 1416 
Q 2763 1416 3359 1484 
L 3391 1088 
Q 2481 1006 825 1006 
L 825 4934 
L 3175 4934 
L 3175 4519 
L 1288 4519 
L 1288 3200 
L 2994 3200 
L 2994 2797 
L 1288 2797 
z
" transform="scale(0.015625)"/>
      <path id="MalgunGothic-b97c" d="M 5222 3144 
L 1313 3144 
L 1313 4447 
L 4628 4447 
L 4628 4966 
L 1313 4966 
L 1313 5363 
L 5088 5363 
L 5088 4084 
L 1772 4084 
L 1772 3541 
L 5222 3541 
L 5222 3144 
z
M 5997 2241 
L 403 2241 
L 403 2638 
L 5997 2638 
L 5997 2241 
z
M 5234 -500 
L 1294 -500 
L 1294 819 
L 4641 819 
L 4641 1338 
L 1294 1338 
L 1294 1734 
L 5100 1734 
L 5100 447 
L 1753 447 
L 1753 -103 
L 5234 -103 
L 5234 -500 
z
" transform="scale(0.015625)"/>
     </defs>
     <use xlink:href="#MalgunGothic-ac01"/>
     <use xlink:href="#MalgunGothic-b3c4" transform="translate(100 0)"/>
     <use xlink:href="#MalgunGothic-20" transform="translate(200 0)"/>
     <use xlink:href="#MalgunGothic-b7" transform="translate(235.15625 0)"/>
     <use xlink:href="#MalgunGothic-20" transform="translate(257.03125 0)"/>
     <use xlink:href="#MalgunGothic-c18d" transform="translate(292.1875 0)"/>
     <use xlink:href="#MalgunGothic-b3c4" transform="translate(392.1875 0)"/>
     <use xlink:href="#MalgunGothic-20" transform="translate(492.1875 0)"/>
     <use xlink:href="#MalgunGothic-b7" transform="translate(527.34375 0)"/>
     <use xlink:href="#MalgunGothic-20" transform="translate(549.21875 0)"/>
     <use xlink:href="#MalgunGothic-44" transform="translate(584.375 0)"/>
     <use xlink:href="#MalgunGothic-43" transform="translate(656.103516 0)"/>
     <use xlink:href="#MalgunGothic-50" transform="translate(719.580078 0)"/>
     <use xlink:href="#MalgunGothic-41" transform="translate(768.285156 0)"/>
     <use xlink:href="#MalgunGothic-20" transform="translate(834.105469 0)"/>
     <use xlink:href="#MalgunGothic-b7" transform="translate(869.261719 0)"/>
     <use xlink:href="#MalgunGothic-20" transform="translate(891.136719 0)"/>
     <use xlink:href="#MalgunGothic-bcf4" transform="translate(926.292969 0)"/>
     <use xlink:href="#MalgunGothic-d589" transform="translate(1026.292969 0)"/>
     <use xlink:href="#MalgunGothic-c790" transform="translate(1126.292969 0)"/>
     <use xlink:href="#MalgunGothic-20" transform="translate(1226.292969 0)"/>
     <use xlink:href="#MalgunGothic-c0c1" transform="translate(1261.449219 0)"/>
     <use xlink:href="#MalgunGothic-d0dc" transform="translate(1361.449219 0)"/>
     <use xlink:href="#MalgunGothic-b97c" transform="translate(1461.449219 0)"/>
     <use xlink:href="#MalgunGothic-20" transform="translate(1561.449219 0)"/>
     <use xlink:href="#MalgunGothic-bcf4" transform="translate(1596.605469 0)"/>
     <use xlink:href="#MalgunGothic-ace0" transform="translate(1696.605469 0)"/>
    </g>
   </g>
   <g id="text_8">
    <!-- 상황마다 다르게 판단 -->
    <g style="fill: #4a4a4a" transform="translate(228.495937 196.464656) scale(0.09 -0.09)">
     <defs>
      <path id="MalgunGothic-d669" d="M 609 4494 
L 609 4903 
L 2156 4903 
L 2156 5516 
L 2619 5516 
L 2619 4903 
L 4159 4903 
L 4159 4494 
L 609 4494 
z
M 5216 3091 
L 5216 1472 
L 4756 1472 
L 4756 5466 
L 5216 5466 
L 5216 3506 
L 6119 3506 
L 6119 3091 
L 5216 3091 
z
M 4347 1813 
Q 3628 1759 2333 1728 
Q 1038 1697 475 1697 
L 428 2100 
Q 1091 2100 2150 2125 
L 2150 2553 
Q 1519 2594 1205 2825 
Q 891 3056 891 3419 
Q 891 3831 1284 4059 
Q 1678 4288 2388 4288 
Q 3088 4288 3483 4048 
Q 3878 3809 3878 3419 
Q 3878 3056 3561 2825 
Q 3244 2594 2613 2553 
L 2613 2131 
Q 3659 2156 4319 2203 
L 4347 1813 
z
M 2388 3909 
Q 1350 3909 1350 3419 
Q 1350 2931 2388 2931 
Q 3419 2931 3419 3419 
Q 3419 3909 2388 3909 
z
M 3303 -513 
Q 2334 -513 1823 -259 
Q 1313 -6 1313 459 
Q 1313 931 1816 1186 
Q 2319 1441 3303 1441 
Q 4288 1441 4791 1186 
Q 5294 931 5294 459 
Q 5294 -6 4783 -259 
Q 4272 -513 3303 -513 
z
M 3303 1038 
Q 1806 1038 1806 459 
Q 1806 194 2186 42 
Q 2566 -109 3303 -109 
Q 4038 -109 4419 42 
Q 4800 194 4800 459 
Q 4800 1038 3303 1038 
z
" transform="scale(0.015625)"/>
      <path id="MalgunGothic-b9c8" d="M 5094 2631 
L 5094 -563 
L 4628 -563 
L 4628 5466 
L 5094 5466 
L 5094 3047 
L 6138 3047 
L 6138 2631 
L 5094 2631 
z
M 800 1209 
L 800 4934 
L 3647 4934 
L 3647 1209 
L 800 1209 
z
M 3188 4525 
L 1269 4525 
L 1269 1619 
L 3188 1619 
L 3188 4525 
z
" transform="scale(0.015625)"/>
      <path id="MalgunGothic-b2e4" d="M 5094 2669 
L 5094 -563 
L 4628 -563 
L 4628 5466 
L 5094 5466 
L 5094 3091 
L 6156 3091 
L 6156 2669 
L 5094 2669 
z
M 4050 1234 
Q 3538 1172 3003 1159 
Q 2469 1147 838 1147 
L 838 4934 
L 3653 4934 
L 3653 4519 
L 1306 4519 
L 1306 1563 
Q 3566 1563 4013 1638 
L 4050 1234 
z
" transform="scale(0.015625)"/>
      <path id="MalgunGothic-b974" d="M 1294 1847 
L 1294 3631 
L 4647 3631 
L 4647 4528 
L 1300 4528 
L 1300 4944 
L 5113 4944 
L 5113 3228 
L 1759 3228 
L 1759 2263 
L 5288 2263 
L 5288 1847 
L 1294 1847 
z
M 403 366 
L 403 781 
L 5997 781 
L 5997 366 
L 403 366 
z
" transform="scale(0.015625)"/>
     </defs>
     <use xlink:href="#MalgunGothic-c0c1"/>
     <use xlink:href="#MalgunGothic-d669" transform="translate(100 0)"/>
     <use xlink:href="#MalgunGothic-b9c8" transform="translate(200 0)"/>
     <use xlink:href="#MalgunGothic-b2e4" transform="translate(300 0)"/>
     <use xlink:href="#MalgunGothic-20" transform="translate(400 0)"/>
     <use xlink:href="#MalgunGothic-b2e4" transform="translate(435.15625 0)"/>
     <use xlink:href="#MalgunGothic-b974" transform="translate(535.15625 0)"/>
     <use xlink:href="#MalgunGothic-ac8c" transform="translate(635.15625 0)"/>
     <use xlink:href="#MalgunGothic-20" transform="translate(735.15625 0)"/>
     <use xlink:href="#MalgunGothic-d310" transform="translate(770.3125 0)"/>
     <use xlink:href="#MalgunGothic-b2e8" transform="translate(870.3125 0)"/>
    </g>
   </g>
   <g id="text_9">
    <!-- TTC로는 안 보이는 위험까지 잡는다 -->
    <g style="fill: #4a4a4a" transform="translate(199.800703 218.311513) scale(0.09 -0.09)">
     <defs>
      <path id="MalgunGothic-b85c" d="M 1247 3641 
L 4659 3641 
L 4659 4531 
L 1259 4531 
L 1259 4941 
L 5125 4941 
L 5125 3238 
L 1722 3238 
L 1722 2241 
L 5300 2241 
L 5300 1825 
L 3438 1825 
L 3438 728 
L 5997 728 
L 5997 313 
L 403 313 
L 403 728 
L 2969 728 
L 2969 1825 
L 1247 1825 
L 1247 3641 
z
" transform="scale(0.015625)"/>
      <path id="MalgunGothic-b294" d="M 1409 3225 
L 1409 5247 
L 1875 5247 
L 1875 3641 
L 5172 3641 
L 5172 3225 
L 1409 3225 
z
M 403 1972 
L 403 2394 
L 5997 2394 
L 5997 1972 
L 403 1972 
z
M 1381 -331 
L 1381 1459 
L 1850 1459 
L 1850 91 
L 5184 91 
L 5184 -331 
L 1381 -331 
z
" transform="scale(0.015625)"/>
      <path id="MalgunGothic-c704" d="M 4997 -563 
L 4997 5466 
L 5466 5466 
L 5466 -563 
L 4997 -563 
z
M 2491 2784 
Q 1800 2784 1376 3140 
Q 953 3497 953 4038 
Q 953 4581 1376 4940 
Q 1800 5300 2491 5300 
Q 3178 5300 3598 4942 
Q 4019 4584 4019 4038 
Q 4019 3494 3600 3139 
Q 3181 2784 2491 2784 
z
M 2491 4897 
Q 2006 4897 1714 4659 
Q 1422 4422 1422 4038 
Q 1422 3653 1714 3420 
Q 2006 3188 2491 3188 
Q 2978 3188 3265 3422 
Q 3553 3656 3553 4038 
Q 3553 4419 3264 4658 
Q 2975 4897 2491 4897 
z
M 2297 -391 
L 2297 1825 
Q 903 1800 500 1800 
L 453 2209 
Q 3088 2209 4603 2297 
L 4628 1894 
Q 4203 1866 2766 1831 
L 2766 -391 
L 2297 -391 
z
" transform="scale(0.015625)"/>
      <path id="MalgunGothic-d5d8" d="M 494 4306 
L 494 4716 
L 2028 4716 
L 2028 5497 
L 2491 5497 
L 2491 4716 
L 4025 4716 
L 4025 4306 
L 494 4306 
z
M 4947 1869 
L 4947 3053 
L 3916 3053 
L 3916 3463 
L 4947 3463 
L 4947 5466 
L 5416 5466 
L 5416 1869 
L 4947 1869 
z
M 2253 1959 
Q 1584 1959 1192 2257 
Q 800 2556 800 3009 
Q 800 3459 1189 3754 
Q 1578 4050 2259 4050 
Q 2934 4050 3323 3754 
Q 3713 3459 3713 3009 
Q 3713 2556 3320 2257 
Q 2928 1959 2253 1959 
z
M 2259 3653 
Q 1797 3653 1533 3475 
Q 1269 3297 1269 3009 
Q 1269 2722 1534 2539 
Q 1800 2356 2259 2356 
Q 2719 2356 2981 2539 
Q 3244 2722 3244 3009 
Q 3244 3294 2983 3473 
Q 2722 3653 2259 3653 
z
M 1678 -453 
L 1678 1538 
L 5416 1538 
L 5416 -453 
L 1678 -453 
z
M 4953 1125 
L 2138 1125 
L 2138 -38 
L 4953 -38 
L 4953 1125 
z
" transform="scale(0.015625)"/>
      <path id="MalgunGothic-ae4c" d="M 5125 2600 
L 5125 -563 
L 4659 -563 
L 4659 5466 
L 5125 5466 
L 5125 3016 
L 6113 3016 
L 6113 2600 
L 5125 2600 
z
M 3847 4672 
Q 3847 2109 2522 469 
L 2094 678 
Q 2722 1369 3056 2373 
Q 3391 3378 3391 4519 
L 2419 4519 
L 2419 4934 
L 3847 4934 
L 3847 4672 
z
M 2175 4697 
Q 2175 2538 781 1203 
L 384 1441 
Q 1013 1997 1367 2811 
Q 1722 3625 1722 4519 
L 653 4519 
L 653 4934 
L 2175 4934 
L 2175 4697 
z
" transform="scale(0.015625)"/>
      <path id="MalgunGothic-c7a1" d="M 5125 3481 
L 5125 2400 
L 4659 2400 
L 4659 5466 
L 5125 5466 
L 5125 3909 
L 6034 3909 
L 6034 3481 
L 5125 3481 
z
M 3603 2381 
Q 3216 2588 2784 2992 
Q 2353 3397 2188 3738 
Q 2019 3347 1605 2911 
Q 1191 2475 750 2228 
L 409 2547 
Q 1066 2863 1509 3458 
Q 1953 4053 1953 4691 
L 1953 4781 
L 622 4781 
L 622 5197 
L 3731 5197 
L 3731 4781 
L 2400 4781 
L 2400 4691 
Q 2400 4088 2845 3534 
Q 3291 2981 3909 2719 
L 3603 2381 
z
M 1447 -397 
L 1447 2069 
L 1906 2069 
L 1906 1234 
L 4666 1234 
L 4666 2069 
L 5125 2069 
L 5125 -397 
L 1447 -397 
z
M 4666 825 
L 1906 825 
L 1906 13 
L 4666 13 
L 4666 825 
z
" transform="scale(0.015625)"/>
     </defs>
     <use xlink:href="#MalgunGothic-54"/>
     <use xlink:href="#MalgunGothic-54" transform="translate(55.369141 0)"/>
     <use xlink:href="#MalgunGothic-43" transform="translate(103.863281 0)"/>
     <use xlink:href="#MalgunGothic-b85c" transform="translate(167.339844 0)"/>
     <use xlink:href="#MalgunGothic-b294" transform="translate(267.339844 0)"/>
     <use xlink:href="#MalgunGothic-20" transform="translate(367.339844 0)"/>
     <use xlink:href="#MalgunGothic-c548" transform="translate(402.496094 0)"/>
     <use xlink:href="#MalgunGothic-20" transform="translate(502.496094 0)"/>
     <use xlink:href="#MalgunGothic-bcf4" transform="translate(537.652344 0)"/>
     <use xlink:href="#MalgunGothic-c774" transform="translate(637.652344 0)"/>
     <use xlink:href="#MalgunGothic-b294" transform="translate(737.652344 0)"/>
     <use xlink:href="#MalgunGothic-20" transform="translate(837.652344 0)"/>
     <use xlink:href="#MalgunGothic-c704" transform="translate(872.808594 0)"/>
     <use xlink:href="#MalgunGothic-d5d8" transform="translate(972.808594 0)"/>
     <use xlink:href="#MalgunGothic-ae4c" transform="translate(1072.808594 0)"/>
     <use xlink:href="#MalgunGothic-c9c0" transform="translate(1172.808594 0)"/>
     <use xlink:href="#MalgunGothic-20" transform="translate(1272.808594 0)"/>
     <use xlink:href="#MalgunGothic-c7a1" transform="translate(1307.964844 0)"/>
     <use xlink:href="#MalgunGothic-b294" transform="translate(1407.964844 0)"/>
     <use xlink:href="#MalgunGothic-b2e4" transform="translate(1507.964844 0)"/>
    </g>
   </g>
   <g id="text_10">
    <!-- 안전 하한 -->
    <g style="fill: #1a1a1a" transform="translate(248.226406 283.161183) scale(0.11 -0.11)">
     <defs>
      <path id="MalgunGothic-c804" d="M 4878 1178 
L 4878 3525 
L 3469 3525 
L 3469 3944 
L 4878 3944 
L 4878 5466 
L 5344 5466 
L 5344 1178 
L 4878 1178 
z
M 3675 2069 
Q 3228 2344 2829 2776 
Q 2431 3209 2266 3566 
Q 2091 3150 1662 2648 
Q 1234 2147 819 1913 
L 481 2234 
Q 1125 2559 1573 3198 
Q 2022 3838 2022 4494 
L 2022 4716 
L 684 4716 
L 684 5141 
L 3788 5141 
L 3788 4716 
L 2478 4716 
L 2478 4494 
Q 2478 3894 2943 3286 
Q 3409 2678 3988 2406 
L 3675 2069 
z
M 1631 -366 
L 1631 1606 
L 2100 1606 
L 2100 44 
L 5503 44 
L 5503 -366 
L 1631 -366 
z
" transform="scale(0.015625)"/>
      <path id="MalgunGothic-d558" d="M 5094 2278 
L 5094 -563 
L 4628 -563 
L 4628 5466 
L 5094 5466 
L 5094 2694 
L 6113 2694 
L 6113 2278 
L 5094 2278 
z
M 469 4084 
L 469 4506 
L 2022 4506 
L 2022 5466 
L 2491 5466 
L 2491 4506 
L 4050 4506 
L 4050 4084 
L 469 4084 
z
M 2253 934 
Q 1588 934 1166 1318 
Q 744 1703 744 2272 
Q 744 2850 1166 3233 
Q 1588 3616 2259 3616 
Q 2928 3616 3351 3231 
Q 3775 2847 3775 2266 
Q 3775 1694 3351 1314 
Q 2928 934 2253 934 
z
M 2259 3219 
Q 1797 3219 1500 2941 
Q 1203 2663 1203 2272 
Q 1203 1884 1501 1607 
Q 1800 1331 2259 1331 
Q 2719 1331 3017 1607 
Q 3316 1884 3316 2272 
Q 3316 2663 3019 2941 
Q 2722 3219 2259 3219 
z
" transform="scale(0.015625)"/>
     </defs>
     <use xlink:href="#MalgunGothic-c548"/>
     <use xlink:href="#MalgunGothic-c804" transform="translate(100 0)"/>
     <use xlink:href="#MalgunGothic-20" transform="translate(200 0)"/>
     <use xlink:href="#MalgunGothic-d558" transform="translate(235.15625 0)"/>
     <use xlink:href="#MalgunGothic-d55c" transform="translate(335.15625 0)"/>
    </g>
   </g>
   <g id="text_11">
    <!-- TTC 2초 이하 → 무조건 레벨 3 -->
    <g style="fill: #4a4a4a" transform="translate(209.903906 300.844085) scale(0.09 -0.09)">
     <defs>
      <path id="MalgunGothic-32" d="M 2519 3372 
Q 2519 3784 2275 4018 
Q 2031 4253 1628 4253 
Q 1341 4253 1053 4104 
Q 766 3956 534 3697 
L 534 4234 
Q 981 4675 1691 4675 
Q 2281 4675 2642 4334 
Q 3003 3994 3003 3416 
Q 3003 2919 2772 2545 
Q 2541 2172 1984 1775 
Q 1459 1406 1254 1215 
Q 1050 1025 967 854 
Q 884 684 884 450 
L 3116 450 
L 3116 0 
L 356 0 
L 356 225 
Q 356 603 461 870 
Q 566 1138 811 1392 
Q 1056 1647 1597 2022 
Q 2091 2363 2305 2670 
Q 2519 2978 2519 3372 
z
" transform="scale(0.015625)"/>
      <path id="MalgunGothic-cd08" d="M 3438 4256 
Q 3478 3700 4140 3189 
Q 4803 2678 5734 2522 
L 5434 2113 
Q 4759 2278 4103 2708 
Q 3447 3138 3194 3578 
Q 2919 3122 2306 2709 
Q 1694 2297 997 2106 
L 672 2509 
Q 1550 2638 2229 3166 
Q 2909 3694 2956 4256 
L 1025 4256 
L 1025 4672 
L 2969 4672 
L 2969 5356 
L 3444 5356 
L 3444 4672 
L 5375 4672 
L 5375 4256 
L 3438 4256 
z
M 403 391 
L 403 806 
L 2956 806 
L 2956 2209 
L 3431 2209 
L 3431 806 
L 5997 806 
L 5997 391 
L 403 391 
z
" transform="scale(0.015625)"/>
      <path id="MalgunGothic-33" d="M 416 719 
Q 891 344 1478 344 
Q 1959 344 2254 587 
Q 2550 831 2550 1247 
Q 2550 2169 1253 2169 
L 872 2169 
L 872 2591 
L 1234 2591 
Q 2388 2591 2388 3453 
Q 2388 4250 1509 4250 
Q 1022 4250 594 3916 
L 594 4413 
Q 1031 4675 1634 4675 
Q 2184 4675 2539 4372 
Q 2894 4069 2894 3581 
Q 2894 2678 1972 2409 
L 1972 2400 
Q 2469 2356 2764 2053 
Q 3059 1750 3059 1300 
Q 3059 672 2604 297 
Q 2150 -78 1450 -78 
Q 806 -78 416 169 
L 416 719 
z
" transform="scale(0.015625)"/>
     </defs>
     <use xlink:href="#MalgunGothic-54"/>
     <use xlink:href="#MalgunGothic-54" transform="translate(55.369141 0)"/>
     <use xlink:href="#MalgunGothic-43" transform="translate(103.863281 0)"/>
     <use xlink:href="#MalgunGothic-20" transform="translate(167.339844 0)"/>
     <use xlink:href="#MalgunGothic-32" transform="translate(202.496094 0)"/>
     <use xlink:href="#MalgunGothic-cd08" transform="translate(257.574219 0)"/>
     <use xlink:href="#MalgunGothic-20" transform="translate(357.574219 0)"/>
     <use xlink:href="#MalgunGothic-c774" transform="translate(392.730469 0)"/>
     <use xlink:href="#MalgunGothic-d558" transform="translate(492.730469 0)"/>
     <use xlink:href="#MalgunGothic-20" transform="translate(592.730469 0)"/>
     <use xlink:href="#MalgunGothic-2192" transform="translate(627.886719 0)"/>
     <use xlink:href="#MalgunGothic-20" transform="translate(722.90625 0)"/>
     <use xlink:href="#MalgunGothic-bb34" transform="translate(758.0625 0)"/>
     <use xlink:href="#MalgunGothic-c870" transform="translate(858.0625 0)"/>
     <use xlink:href="#MalgunGothic-ac74" transform="translate(958.0625 0)"/>
     <use xlink:href="#MalgunGothic-20" transform="translate(1058.0625 0)"/>
     <use xlink:href="#MalgunGothic-b808" transform="translate(1093.21875 0)"/>
     <use xlink:href="#MalgunGothic-bca8" transform="translate(1193.21875 0)"/>
     <use xlink:href="#MalgunGothic-20" transform="translate(1293.21875 0)"/>
     <use xlink:href="#MalgunGothic-33" transform="translate(1328.375 0)"/>
    </g>
   </g>
   <g id="text_12">
    <!-- AI가 뭐라 하든 무시 -->
    <g style="fill: #4a4a4a" transform="translate(231.736641 319.049799) scale(0.09 -0.09)">
     <defs>
      <path id="MalgunGothic-ac00" d="M 5094 2566 
L 5094 -563 
L 4628 -563 
L 4628 5466 
L 5094 5466 
L 5094 2981 
L 6175 2981 
L 6175 2566 
L 5094 2566 
z
M 3609 4928 
Q 3541 2363 897 863 
L 538 1241 
Q 1484 1631 2234 2506 
Q 2984 3381 3109 4513 
L 794 4513 
L 794 4928 
L 3609 4928 
z
" transform="scale(0.015625)"/>
      <path id="MalgunGothic-bb50" d="M 3578 903 
L 3578 1319 
L 4997 1319 
L 4997 5466 
L 5466 5466 
L 5466 -563 
L 4997 -563 
L 4997 903 
L 3578 903 
z
M 1063 2944 
L 1063 5209 
L 3859 5209 
L 3859 2944 
L 1063 2944 
z
M 3397 4800 
L 1522 4800 
L 1522 3359 
L 3397 3359 
L 3397 4800 
z
M 2266 -391 
L 2266 1888 
Q 1131 1863 469 1863 
L 422 2272 
Q 2888 2272 4538 2363 
L 4563 1959 
Q 4056 1925 2731 1894 
L 2731 -391 
L 2266 -391 
z
" transform="scale(0.015625)"/>
      <path id="MalgunGothic-b4e0" d="M 1344 3097 
L 1344 5228 
L 5056 5228 
L 5056 4813 
L 1813 4813 
L 1813 3519 
L 5119 3519 
L 5119 3097 
L 1344 3097 
z
M 403 1906 
L 403 2322 
L 5997 2322 
L 5997 1906 
L 403 1906 
z
M 1319 -359 
L 1319 1350 
L 1784 1350 
L 1784 56 
L 5203 56 
L 5203 -359 
L 1319 -359 
z
" transform="scale(0.015625)"/>
      <path id="MalgunGothic-c2dc" d="M 4947 -563 
L 4947 5466 
L 5416 5466 
L 5416 -563 
L 4947 -563 
z
M 3769 966 
Q 3263 1353 2820 1939 
Q 2378 2525 2259 2950 
Q 2116 2463 1687 1872 
Q 1259 1281 756 891 
L 397 1203 
Q 1141 1703 1581 2479 
Q 2022 3256 2022 4063 
L 2022 5050 
L 2484 5050 
L 2484 4084 
Q 2484 3303 2920 2556 
Q 3356 1809 4097 1331 
L 3769 966 
z
" transform="scale(0.015625)"/>
     </defs>
     <use xlink:href="#MalgunGothic-41"/>
     <use xlink:href="#MalgunGothic-49" transform="translate(65.820312 0)"/>
     <use xlink:href="#MalgunGothic-ac00" transform="translate(92.822266 0)"/>
     <use xlink:href="#MalgunGothic-20" transform="translate(192.822266 0)"/>
     <use xlink:href="#MalgunGothic-bb50" transform="translate(227.978516 0)"/>
     <use xlink:href="#MalgunGothic-b77c" transform="translate(327.978516 0)"/>
     <use xlink:href="#MalgunGothic-20" transform="translate(427.978516 0)"/>
     <use xlink:href="#MalgunGothic-d558" transform="translate(463.134766 0)"/>
     <use xlink:href="#MalgunGothic-b4e0" transform="translate(563.134766 0)"/>
     <use xlink:href="#MalgunGothic-20" transform="translate(663.134766 0)"/>
     <use xlink:href="#MalgunGothic-bb34" transform="translate(698.291016 0)"/>
     <use xlink:href="#MalgunGothic-c2dc" transform="translate(798.291016 0)"/>
    </g>
   </g>
   <g id="text_13">
    <!-- 학습 데이터 -->
    <g style="fill: #1a1a1a" transform="translate(550.106187 156.673491) scale(0.1 -0.1)">
     <defs>
      <path id="MalgunGothic-d559" d="M 447 4347 
L 447 4763 
L 2003 4763 
L 2003 5497 
L 2478 5497 
L 2478 4763 
L 4019 4763 
L 4019 4347 
L 447 4347 
z
M 5125 3150 
L 5125 1800 
L 4659 1800 
L 4659 5466 
L 5125 5466 
L 5125 3566 
L 6034 3566 
L 6034 3150 
L 5125 3150 
z
M 2241 1941 
Q 1547 1941 1151 2234 
Q 756 2528 756 2988 
Q 756 3444 1151 3737 
Q 1547 4031 2247 4031 
Q 2947 4031 3342 3737 
Q 3738 3444 3738 2988 
Q 3738 2534 3336 2237 
Q 2934 1941 2241 1941 
z
M 2247 3634 
Q 1769 3634 1492 3456 
Q 1216 3278 1216 2988 
Q 1216 2703 1489 2520 
Q 1763 2338 2247 2338 
Q 2731 2338 3004 2520 
Q 3278 2703 3278 2988 
Q 3278 3278 3001 3456 
Q 2725 3634 2247 3634 
z
M 4659 -563 
L 4659 1063 
L 1191 1063 
L 1191 1472 
L 5119 1472 
L 5119 -563 
L 4659 -563 
z
" transform="scale(0.015625)"/>
      <path id="MalgunGothic-c2b5" d="M 5459 3303 
Q 4731 3406 4097 3770 
Q 3463 4134 3206 4531 
Q 2972 4163 2323 3786 
Q 1675 3409 972 3309 
L 697 3688 
Q 1650 3769 2309 4237 
Q 2969 4706 2969 5153 
L 2969 5356 
L 3431 5356 
L 3431 5153 
Q 3431 4697 4090 4226 
Q 4750 3756 5703 3681 
L 5459 3303 
z
M 403 2328 
L 403 2747 
L 5997 2747 
L 5997 2328 
L 403 2328 
z
M 1325 -397 
L 1325 1850 
L 1784 1850 
L 1784 1100 
L 4609 1100 
L 4609 1850 
L 5069 1850 
L 5069 -397 
L 1325 -397 
z
M 4609 691 
L 1784 691 
L 1784 13 
L 4609 13 
L 4609 691 
z
" transform="scale(0.015625)"/>
      <path id="MalgunGothic-b370" d="M 5044 -563 
L 5044 5466 
L 5509 5466 
L 5509 -563 
L 5044 -563 
z
M 3897 -366 
L 3897 2859 
L 2650 2859 
L 2650 3272 
L 3897 3272 
L 3897 5344 
L 4359 5344 
L 4359 -366 
L 3897 -366 
z
M 3359 1094 
Q 2766 1019 909 1019 
L 909 4966 
L 3138 4966 
L 3138 4550 
L 1369 4550 
L 1369 1428 
Q 2897 1428 3328 1491 
L 3359 1094 
z
" transform="scale(0.015625)"/>
      <path id="MalgunGothic-d130" d="M 4891 -563 
L 4891 2516 
L 3706 2516 
L 3706 2925 
L 4891 2925 
L 4891 5466 
L 5356 5466 
L 5356 -563 
L 4891 -563 
z
M 1422 2816 
L 1422 1331 
L 2144 1331 
Q 3525 1331 4141 1409 
L 4172 1006 
Q 3694 950 3141 936 
Q 2588 922 953 922 
L 953 4953 
L 3841 4953 
L 3841 4531 
L 1422 4531 
L 1422 3219 
L 3181 3219 
L 3181 2816 
L 1422 2816 
z
" transform="scale(0.015625)"/>
     </defs>
     <use xlink:href="#MalgunGothic-d559"/>
     <use xlink:href="#MalgunGothic-c2b5" transform="translate(100 0)"/>
     <use xlink:href="#MalgunGothic-20" transform="translate(200 0)"/>
     <use xlink:href="#MalgunGothic-b370" transform="translate(235.15625 0)"/>
     <use xlink:href="#MalgunGothic-c774" transform="translate(335.15625 0)"/>
     <use xlink:href="#MalgunGothic-d130" transform="translate(435.15625 0)"/>
    </g>
   </g>
   <g id="text_14">
    <!-- 지금 — 자체 시뮬 -->
    <g style="fill: #4a4a4a" transform="translate(542.521344 175.70081) scale(0.085 -0.085)">
     <defs>
      <path id="MalgunGothic-ae08" d="M 403 2663 
L 403 3084 
L 4563 3084 
Q 4634 3803 4634 4819 
L 1338 4819 
L 1338 5234 
L 5100 5234 
Q 5100 4081 5019 3084 
L 5997 3084 
L 5997 2663 
L 403 2663 
z
M 1350 -416 
L 1350 1856 
L 5075 1856 
L 5075 -416 
L 1350 -416 
z
M 4616 1447 
L 1813 1447 
L 1813 0 
L 4616 0 
L 4616 1447 
z
" transform="scale(0.015625)"/>
      <path id="MalgunGothic-2014" d="M 6566 1634 
L 0 1634 
L 0 2031 
L 6566 2031 
L 6566 1634 
z
" transform="scale(0.015625)"/>
      <path id="MalgunGothic-ccb4" d="M 5069 -563 
L 5069 5466 
L 5544 5466 
L 5544 -563 
L 5069 -563 
z
M 3163 934 
Q 2825 1197 2473 1659 
Q 2122 2122 1991 2491 
Q 1878 2109 1526 1593 
Q 1175 1078 825 788 
L 428 1100 
Q 956 1441 1351 2155 
Q 1747 2869 1747 3559 
L 1747 4141 
L 594 4141 
L 594 4556 
L 1741 4556 
L 1741 5369 
L 2209 5369 
L 2209 4556 
L 3359 4556 
L 3359 4141 
L 2216 4141 
L 2216 3541 
Q 2216 2881 2616 2226 
Q 3016 1572 3541 1259 
L 3163 934 
z
M 4000 -378 
L 4000 2791 
L 2931 2791 
L 2931 3206 
L 4000 3206 
L 4000 5344 
L 4459 5344 
L 4459 -378 
L 4000 -378 
z
" transform="scale(0.015625)"/>
      <path id="MalgunGothic-bbac" d="M 1338 3384 
L 1338 5356 
L 5063 5356 
L 5063 3384 
L 1338 3384 
z
M 4603 4941 
L 1797 4941 
L 1797 3794 
L 4603 3794 
L 4603 4941 
z
M 1294 -447 
L 1294 903 
L 4634 903 
L 4634 1409 
L 1294 1409 
L 1294 1819 
L 2009 1819 
L 2009 2425 
L 403 2425 
L 403 2847 
L 5997 2847 
L 5997 2425 
L 4391 2425 
L 4391 1819 
L 5094 1819 
L 5094 500 
L 1753 500 
L 1753 -31 
L 5259 -31 
L 5259 -447 
L 1294 -447 
z
M 3928 1819 
L 3928 2425 
L 2472 2425 
L 2472 1819 
L 3928 1819 
z
" transform="scale(0.015625)"/>
     </defs>
     <use xlink:href="#MalgunGothic-c9c0"/>
     <use xlink:href="#MalgunGothic-ae08" transform="translate(100 0)"/>
     <use xlink:href="#MalgunGothic-20" transform="translate(200 0)"/>
     <use xlink:href="#MalgunGothic-2014" transform="translate(235.15625 0)"/>
     <use xlink:href="#MalgunGothic-20" transform="translate(337.744141 0)"/>
     <use xlink:href="#MalgunGothic-c790" transform="translate(372.900391 0)"/>
     <use xlink:href="#MalgunGothic-ccb4" transform="translate(472.900391 0)"/>
     <use xlink:href="#MalgunGothic-20" transform="translate(572.900391 0)"/>
     <use xlink:href="#MalgunGothic-c2dc" transform="translate(608.056641 0)"/>
     <use xlink:href="#MalgunGothic-bbac" transform="translate(708.056641 0)"/>
    </g>
   </g>
   <g id="text_15">
    <!-- 예정 — SUMO -->
    <g style="fill: #4a4a4a" transform="translate(548.537086 195.120239) scale(0.085 -0.085)">
     <defs>
      <path id="MalgunGothic-c608" d="M 5069 -563 
L 5069 5466 
L 5538 5466 
L 5538 -563 
L 5069 -563 
z
M 3091 1856 
Q 2775 928 1947 928 
Q 1325 928 986 1470 
Q 647 2013 647 3016 
Q 647 4016 986 4558 
Q 1325 5100 1947 5100 
Q 2763 5100 3078 4206 
L 3981 4206 
L 3981 5344 
L 4447 5344 
L 4447 -500 
L 3981 -500 
L 3981 1856 
L 3091 1856 
z
M 1947 4678 
Q 1094 4678 1094 3016 
Q 1094 1350 1947 1350 
Q 2797 1350 2797 3016 
Q 2797 4678 1947 4678 
z
M 3194 2266 
L 3981 2266 
L 3981 3794 
L 3188 3794 
Q 3250 3413 3250 3016 
Q 3250 2597 3194 2266 
z
" transform="scale(0.015625)"/>
      <path id="MalgunGothic-c815" d="M 4947 1984 
L 4947 3694 
L 3541 3694 
L 3541 4109 
L 4947 4109 
L 4947 5466 
L 5416 5466 
L 5416 1984 
L 4947 1984 
z
M 3653 2328 
Q 3244 2550 2831 2950 
Q 2419 3350 2253 3700 
Q 2075 3303 1659 2858 
Q 1244 2413 819 2175 
L 488 2497 
Q 1134 2806 1571 3393 
Q 2009 3981 2009 4628 
L 2009 4781 
L 684 4781 
L 684 5197 
L 3788 5197 
L 3788 4781 
L 2463 4781 
L 2463 4628 
Q 2463 4025 2916 3472 
Q 3369 2919 3969 2669 
L 3653 2328 
z
M 3566 -475 
Q 2622 -475 2108 -148 
Q 1594 178 1594 697 
Q 1594 1216 2106 1539 
Q 2619 1863 3566 1863 
Q 4513 1863 5025 1539 
Q 5538 1216 5538 697 
Q 5538 178 5023 -148 
Q 4509 -475 3566 -475 
z
M 3566 1466 
Q 2850 1466 2472 1248 
Q 2094 1031 2094 697 
Q 2094 359 2473 143 
Q 2853 -72 3566 -72 
Q 4275 -72 4656 142 
Q 5038 356 5038 697 
Q 5038 1034 4659 1250 
Q 4281 1466 3566 1466 
z
" transform="scale(0.015625)"/>
      <path id="MalgunGothic-53" d="M 394 797 
Q 606 613 964 500 
Q 1322 388 1625 388 
Q 2628 388 2628 1116 
Q 2628 1325 2523 1484 
Q 2419 1644 2250 1756 
Q 2081 1869 1547 2144 
Q 903 2475 651 2754 
Q 400 3034 400 3456 
Q 400 4019 858 4347 
Q 1316 4675 1988 4675 
Q 2669 4675 2963 4513 
L 2963 3928 
Q 2563 4206 1922 4206 
Q 1484 4206 1207 4018 
Q 931 3831 931 3500 
Q 931 3200 1126 3011 
Q 1322 2822 1938 2522 
Q 2656 2163 2906 1844 
Q 3156 1525 3156 1153 
Q 3156 556 2725 239 
Q 2294 -78 1531 -78 
Q 1291 -78 927 -1 
Q 563 75 394 188 
L 394 797 
z
" transform="scale(0.015625)"/>
      <path id="MalgunGothic-55" d="M 3947 1850 
Q 3947 -78 2209 -78 
Q 553 -78 553 1778 
L 553 4600 
L 1056 4600 
L 1056 1813 
Q 1056 381 2272 381 
Q 3441 381 3441 1763 
L 3441 4600 
L 3947 4600 
L 3947 1850 
z
" transform="scale(0.015625)"/>
      <path id="MalgunGothic-4d" d="M 4756 0 
L 4756 3106 
Q 4756 3466 4803 3994 
L 4788 3994 
Q 4713 3684 4653 3559 
L 3050 0 
L 2822 0 
L 1222 3534 
Q 1159 3669 1091 3994 
L 1075 3994 
Q 1100 3822 1100 3116 
L 1100 0 
L 609 0 
L 609 4600 
L 1269 4600 
L 2706 1359 
Q 2881 966 2922 816 
L 2941 816 
Q 2988 944 3166 1375 
L 4638 4600 
L 5259 4600 
L 5259 0 
L 4756 0 
z
" transform="scale(0.015625)"/>
      <path id="MalgunGothic-4f" d="M 306 2244 
Q 306 3350 903 4012 
Q 1500 4675 2531 4675 
Q 3481 4675 4062 4029 
Q 4644 3384 4644 2359 
Q 4644 1256 4056 589 
Q 3469 -78 2456 -78 
Q 1488 -78 897 570 
Q 306 1219 306 2244 
z
M 838 2291 
Q 838 1456 1278 918 
Q 1719 381 2453 381 
Q 3238 381 3677 889 
Q 4116 1397 4116 2284 
Q 4116 3188 3692 3700 
Q 3269 4213 2494 4213 
Q 1741 4213 1289 3670 
Q 838 3128 838 2291 
z
" transform="scale(0.015625)"/>
     </defs>
     <use xlink:href="#MalgunGothic-c608"/>
     <use xlink:href="#MalgunGothic-c815" transform="translate(100 0)"/>
     <use xlink:href="#MalgunGothic-20" transform="translate(200 0)"/>
     <use xlink:href="#MalgunGothic-2014" transform="translate(235.15625 0)"/>
     <use xlink:href="#MalgunGothic-20" transform="translate(337.744141 0)"/>
     <use xlink:href="#MalgunGothic-53" transform="translate(372.900391 0)"/>
     <use xlink:href="#MalgunGothic-55" transform="translate(427.197266 0)"/>
     <use xlink:href="#MalgunGothic-4d" transform="translate(497.460938 0)"/>
     <use xlink:href="#MalgunGothic-4f" transform="translate(589.160156 0)"/>
    </g>
   </g>
   <g id="text_16">
    <!-- 오라클로 라벨링 -->
    <g style="fill: #4a4a4a" transform="translate(545.619859 214.539667) scale(0.085 -0.085)">
     <defs>
      <path id="MalgunGothic-c624" d="M 403 391 
L 403 800 
L 2963 800 
L 2963 2016 
Q 2103 2081 1634 2479 
Q 1166 2878 1166 3525 
Q 1166 4228 1727 4629 
Q 2288 5031 3200 5031 
Q 4113 5031 4670 4632 
Q 5228 4234 5228 3525 
Q 5228 2878 4759 2479 
Q 4291 2081 3438 2016 
L 3438 800 
L 5997 800 
L 5997 391 
L 403 391 
z
M 1650 3525 
Q 1650 3016 2079 2720 
Q 2509 2425 3200 2425 
Q 3891 2425 4317 2722 
Q 4744 3019 4744 3525 
Q 4744 4028 4317 4325 
Q 3891 4622 3200 4622 
Q 2506 4622 2078 4325 
Q 1650 4028 1650 3525 
z
" transform="scale(0.015625)"/>
      <path id="MalgunGothic-d074" d="M 403 2675 
L 403 3084 
L 4659 3084 
Q 4669 3100 4697 3891 
L 1209 3713 
L 1081 4141 
L 4703 4269 
L 4709 4634 
L 4709 4922 
L 1344 4922 
L 1344 5325 
L 5178 5325 
Q 5178 3819 5106 3084 
L 5997 3084 
L 5997 2675 
L 403 2675 
z
M 1331 -384 
L 1331 1088 
L 4634 1088 
L 4634 1663 
L 1331 1663 
L 1331 2081 
L 5094 2081 
L 5094 678 
L 1791 678 
L 1791 25 
L 5259 25 
L 5259 -384 
L 1331 -384 
z
" transform="scale(0.015625)"/>
      <path id="MalgunGothic-b9c1" d="M 4947 1850 
L 4947 5466 
L 5416 5466 
L 5416 1850 
L 4947 1850 
z
M 4325 2344 
Q 3844 2266 3369 2250 
Q 2894 2234 1044 2234 
L 1044 3963 
L 3278 3963 
L 3278 4800 
L 1044 4800 
L 1044 5209 
L 3738 5209 
L 3738 3559 
L 1503 3559 
L 1503 2650 
Q 3034 2650 3479 2667 
Q 3925 2684 4256 2747 
L 4325 2344 
z
M 3494 -500 
Q 2541 -500 2031 -197 
Q 1522 106 1522 616 
Q 1522 1125 2031 1426 
Q 2541 1728 3494 1728 
Q 4447 1728 4956 1423 
Q 5466 1119 5466 616 
Q 5466 109 4958 -195 
Q 4450 -500 3494 -500 
z
M 3494 1331 
Q 2769 1331 2392 1139 
Q 2016 947 2016 616 
Q 2016 281 2398 89 
Q 2781 -103 3494 -103 
Q 4213 -103 4589 90 
Q 4966 284 4966 616 
Q 4966 944 4595 1137 
Q 4225 1331 3494 1331 
z
" transform="scale(0.015625)"/>
     </defs>
     <use xlink:href="#MalgunGothic-c624"/>
     <use xlink:href="#MalgunGothic-b77c" transform="translate(100 0)"/>
     <use xlink:href="#MalgunGothic-d074" transform="translate(200 0)"/>
     <use xlink:href="#MalgunGothic-b85c" transform="translate(300 0)"/>
     <use xlink:href="#MalgunGothic-20" transform="translate(400 0)"/>
     <use xlink:href="#MalgunGothic-b77c" transform="translate(435.15625 0)"/>
     <use xlink:href="#MalgunGothic-bca8" transform="translate(535.15625 0)"/>
     <use xlink:href="#MalgunGothic-b9c1" transform="translate(635.15625 0)"/>
    </g>
   </g>
   <g id="text_17">
    <!-- 최종 = max( 안전 하한, 규칙 점수표, AI 판정 ) -->
    <g style="fill: #1a1a1a" transform="translate(99.936 377.382857) scale(0.11 -0.11)">
     <defs>
      <path id="MalgunGothic-cd5c" d="M 5484 5466 
L 5484 -563 
L 5019 -563 
L 5019 5466 
L 5484 5466 
z
M 2778 4250 
Q 2797 3766 3325 3298 
Q 3853 2831 4434 2734 
L 4116 2356 
Q 3628 2522 3158 2883 
Q 2688 3244 2541 3547 
Q 2391 3228 1923 2823 
Q 1456 2419 972 2228 
L 634 2572 
Q 1247 2744 1767 3239 
Q 2288 3734 2309 4250 
L 838 4250 
L 838 4666 
L 2309 4666 
L 2309 5369 
L 2784 5369 
L 2784 4666 
L 4206 4666 
L 4206 4250 
L 2778 4250 
z
M 4659 659 
Q 2878 556 500 556 
L 453 972 
Q 1447 972 2309 991 
L 2309 2356 
L 2778 2356 
L 2778 1000 
Q 4206 1034 4634 1063 
L 4659 659 
z
" transform="scale(0.015625)"/>
      <path id="MalgunGothic-c885" d="M 5459 3272 
Q 4716 3391 4080 3722 
Q 3444 4053 3206 4409 
Q 2981 4091 2353 3750 
Q 1725 3409 972 3278 
L 697 3653 
Q 1478 3713 2139 4083 
Q 2800 4453 2950 4878 
L 1025 4878 
L 1025 5300 
L 5375 5300 
L 5375 4878 
L 3456 4878 
Q 3597 4456 4251 4090 
Q 4906 3725 5703 3653 
L 5459 3272 
z
M 403 2203 
L 403 2625 
L 2963 2625 
L 2963 3506 
L 3438 3506 
L 3438 2625 
L 5997 2625 
L 5997 2203 
L 403 2203 
z
M 3200 -500 
Q 2263 -500 1766 -200 
Q 1269 100 1269 628 
Q 1269 1144 1767 1442 
Q 2266 1741 3200 1741 
Q 4134 1741 4632 1442 
Q 5131 1144 5131 628 
Q 5131 100 4634 -200 
Q 4138 -500 3200 -500 
z
M 3200 1344 
Q 2481 1344 2117 1155 
Q 1753 966 1753 628 
Q 1753 284 2123 90 
Q 2494 -103 3200 -103 
Q 3903 -103 4275 90 
Q 4647 284 4647 628 
Q 4647 966 4281 1155 
Q 3916 1344 3200 1344 
z
" transform="scale(0.015625)"/>
      <path id="MalgunGothic-3d" d="M 3750 2397 
L 744 2397 
L 744 2803 
L 3750 2803 
L 3750 2397 
z
M 3750 1031 
L 744 1031 
L 744 1441 
L 3750 1441 
L 3750 1031 
z
" transform="scale(0.015625)"/>
      <path id="MalgunGothic-6d" d="M 5166 0 
L 4669 0 
L 4669 1884 
Q 4669 2463 4495 2702 
Q 4322 2941 3922 2941 
Q 3584 2941 3342 2623 
Q 3100 2306 3100 1875 
L 3100 0 
L 2606 0 
L 2606 1953 
Q 2606 2941 1844 2941 
Q 1497 2941 1265 2642 
Q 1034 2344 1034 1875 
L 1034 0 
L 538 0 
L 538 3284 
L 1034 3284 
L 1034 2763 
L 1047 2763 
Q 1391 3359 2063 3359 
Q 2381 3359 2636 3176 
Q 2891 2994 2991 2675 
Q 3356 3359 4081 3359 
Q 5166 3359 5166 2022 
L 5166 0 
z
" transform="scale(0.015625)"/>
      <path id="MalgunGothic-61" d="M 616 3050 
Q 1097 3359 1722 3359 
Q 2866 3359 2866 2147 
L 2866 0 
L 2369 0 
L 2369 516 
L 2350 516 
Q 2009 -78 1341 -78 
Q 859 -78 576 180 
Q 294 438 294 869 
Q 294 1784 1375 1934 
L 2366 2078 
Q 2366 2934 1684 2934 
Q 1084 2934 616 2525 
L 616 3050 
z
M 1563 1559 
Q 1178 1509 993 1371 
Q 809 1234 809 903 
Q 809 653 986 500 
Q 1163 347 1450 347 
Q 1847 347 2106 628 
Q 2366 909 2366 1334 
L 2366 1666 
L 1563 1559 
z
" transform="scale(0.015625)"/>
      <path id="MalgunGothic-78" d="M 2884 3284 
L 1784 1616 
L 2869 0 
L 2288 0 
L 1634 1078 
Q 1563 1197 1491 1325 
L 1475 1325 
Q 1456 1284 1328 1078 
L 656 0 
L 88 0 
L 1209 1606 
L 134 3284 
L 713 3284 
L 1494 1897 
L 1506 1897 
Q 1525 1925 1641 2119 
L 2344 3284 
L 2884 3284 
z
" transform="scale(0.015625)"/>
      <path id="MalgunGothic-28" d="M 1438 -1044 
Q 447 88 447 1753 
Q 447 3431 1438 4600 
L 1888 4600 
Q 878 3372 878 1759 
Q 878 153 1881 -1044 
L 1438 -1044 
z
" transform="scale(0.015625)"/>
      <path id="MalgunGothic-2c" d="M 988 725 
L 472 -850 
L 125 -850 
L 503 725 
L 988 725 
z
" transform="scale(0.015625)"/>
      <path id="MalgunGothic-addc" d="M 1875 -563 
L 1875 2228 
L 403 2228 
L 403 2650 
L 4594 2650 
Q 4666 3400 4666 4788 
L 1313 4788 
L 1313 5203 
L 5131 5203 
Q 5131 3494 5056 2650 
L 5997 2650 
L 5997 2228 
L 4525 2228 
L 4525 -563 
L 4056 -563 
L 4056 2228 
L 2344 2228 
L 2344 -563 
L 1875 -563 
z
" transform="scale(0.015625)"/>
      <path id="MalgunGothic-ce59" d="M 3872 2156 
Q 3403 2372 2987 2733 
Q 2572 3094 2394 3438 
Q 1959 2588 903 2028 
L 556 2388 
Q 1209 2622 1679 3145 
Q 2150 3669 2150 4147 
L 2150 4409 
L 756 4409 
L 756 4819 
L 2150 4819 
L 2150 5522 
L 2625 5522 
L 2625 4819 
L 4013 4819 
L 4013 4409 
L 2625 4409 
L 2625 4147 
Q 2625 3684 3112 3193 
Q 3600 2703 4184 2534 
L 3872 2156 
z
M 4884 1925 
L 4884 5466 
L 5350 5466 
L 5350 1925 
L 4884 1925 
z
M 4884 -563 
L 4884 1172 
L 1428 1172 
L 1428 1594 
L 5350 1594 
L 5350 -563 
L 4884 -563 
z
" transform="scale(0.015625)"/>
      <path id="MalgunGothic-c810" d="M 4884 2113 
L 4884 3675 
L 3444 3675 
L 3444 4097 
L 4884 4097 
L 4884 5466 
L 5350 5466 
L 5350 2113 
L 4884 2113 
z
M 3653 2328 
Q 3244 2550 2831 2950 
Q 2419 3350 2253 3700 
Q 2075 3303 1659 2858 
Q 1244 2413 819 2175 
L 488 2497 
Q 1134 2806 1571 3393 
Q 2009 3981 2009 4628 
L 2009 4781 
L 684 4781 
L 684 5197 
L 3788 5197 
L 3788 4781 
L 2463 4781 
L 2463 4628 
Q 2463 4025 2916 3472 
Q 3369 2919 3969 2669 
L 3653 2328 
z
M 1625 -397 
L 1625 1766 
L 5350 1766 
L 5350 -397 
L 1625 -397 
z
M 4891 1356 
L 2088 1356 
L 2088 13 
L 4891 13 
L 4891 1356 
z
" transform="scale(0.015625)"/>
      <path id="MalgunGothic-c218" d="M 5491 2994 
Q 4750 3097 4078 3498 
Q 3406 3900 3200 4275 
Q 2975 3891 2309 3491 
Q 1644 3091 922 2956 
L 634 3347 
Q 1559 3450 2261 3942 
Q 2963 4434 2963 5013 
L 2963 5275 
L 3431 5275 
L 3431 5013 
Q 3431 4431 4118 3948 
Q 4806 3466 5766 3378 
L 5491 2994 
z
M 3431 1838 
L 3431 -563 
L 2963 -563 
L 2963 1838 
L 403 1838 
L 403 2253 
L 5997 2253 
L 5997 1838 
L 3431 1838 
z
" transform="scale(0.015625)"/>
      <path id="MalgunGothic-d45c" d="M 997 4897 
L 5403 4897 
L 5403 4488 
L 997 4488 
L 997 4897 
z
M 4481 2566 
L 5478 2566 
L 5478 2156 
L 4494 2156 
L 4494 756 
L 5997 756 
L 5997 341 
L 403 341 
L 403 756 
L 1906 756 
L 1906 2156 
L 922 2156 
L 922 2566 
L 1919 2566 
L 1844 4172 
L 2303 4172 
L 2381 2566 
L 4019 2566 
L 4097 4172 
L 4556 4172 
L 4481 2566 
z
M 2375 756 
L 4025 756 
L 4025 2156 
L 2375 2156 
L 2375 756 
z
" transform="scale(0.015625)"/>
      <path id="MalgunGothic-29" d="M 81 -1044 
Q 1081 150 1081 1759 
Q 1081 3378 72 4600 
L 525 4600 
Q 1522 3431 1522 1753 
Q 1522 88 525 -1044 
L 81 -1044 
z
" transform="scale(0.015625)"/>
     </defs>
     <use xlink:href="#MalgunGothic-cd5c"/>
     <use xlink:href="#MalgunGothic-c885" transform="translate(100 0)"/>
     <use xlink:href="#MalgunGothic-20" transform="translate(200 0)"/>
     <use xlink:href="#MalgunGothic-3d" transform="translate(235.15625 0)"/>
     <use xlink:href="#MalgunGothic-20" transform="translate(305.224609 0)"/>
     <use xlink:href="#MalgunGothic-6d" transform="translate(340.380859 0)"/>
     <use xlink:href="#MalgunGothic-61" transform="translate(428.369141 0)"/>
     <use xlink:href="#MalgunGothic-78" transform="translate(480.371094 0)"/>
     <use xlink:href="#MalgunGothic-28" transform="translate(526.855469 0)"/>
     <use xlink:href="#MalgunGothic-20" transform="translate(557.324219 0)"/>
     <use xlink:href="#MalgunGothic-c548" transform="translate(592.480469 0)"/>
     <use xlink:href="#MalgunGothic-c804" transform="translate(692.480469 0)"/>
     <use xlink:href="#MalgunGothic-20" transform="translate(792.480469 0)"/>
     <use xlink:href="#MalgunGothic-d558" transform="translate(827.636719 0)"/>
     <use xlink:href="#MalgunGothic-d55c" transform="translate(927.636719 0)"/>
     <use xlink:href="#MalgunGothic-2c" transform="translate(1027.636719 0)"/>
     <use xlink:href="#MalgunGothic-20" transform="translate(1049.511719 0)"/>
     <use xlink:href="#MalgunGothic-addc" transform="translate(1084.667969 0)"/>
     <use xlink:href="#MalgunGothic-ce59" transform="translate(1184.667969 0)"/>
     <use xlink:href="#MalgunGothic-20" transform="translate(1284.667969 0)"/>
     <use xlink:href="#MalgunGothic-c810" transform="translate(1319.824219 0)"/>
     <use xlink:href="#MalgunGothic-c218" transform="translate(1419.824219 0)"/>
     <use xlink:href="#MalgunGothic-d45c" transform="translate(1519.824219 0)"/>
     <use xlink:href="#MalgunGothic-2c" transform="translate(1619.824219 0)"/>
     <use xlink:href="#MalgunGothic-20" transform="translate(1641.699219 0)"/>
     <use xlink:href="#MalgunGothic-41" transform="translate(1676.855469 0)"/>
     <use xlink:href="#MalgunGothic-49" transform="translate(1742.675781 0)"/>
     <use xlink:href="#MalgunGothic-20" transform="translate(1769.677734 0)"/>
     <use xlink:href="#MalgunGothic-d310" transform="translate(1804.833984 0)"/>
     <use xlink:href="#MalgunGothic-c815" transform="translate(1904.833984 0)"/>
     <use xlink:href="#MalgunGothic-20" transform="translate(2004.833984 0)"/>
     <use xlink:href="#MalgunGothic-29" transform="translate(2039.990234 0)"/>
    </g>
   </g>
   <g id="text_18">
    <!-- 절대 규칙 -->
    <g style="fill: #4a4a4a" transform="translate(123.7824 417.229953) scale(0.085 -0.085)">
     <defs>
      <path id="MalgunGothic-c808" d="M 4878 2450 
L 4878 3841 
L 3531 3841 
L 3531 4263 
L 4878 4263 
L 4878 5466 
L 5344 5466 
L 5344 2450 
L 4878 2450 
z
M 3688 2631 
Q 3250 2822 2845 3167 
Q 2441 3513 2266 3841 
Q 1853 2978 831 2450 
L 500 2766 
Q 1203 3097 1618 3609 
Q 2034 4122 2034 4684 
L 2034 4844 
L 684 4844 
L 684 5259 
L 3788 5259 
L 3788 4844 
L 2491 4844 
L 2491 4684 
Q 2491 4131 2933 3664 
Q 3375 3197 4000 2988 
L 3688 2631 
z
M 1631 -422 
L 1631 1069 
L 4884 1069 
L 4884 1716 
L 1631 1716 
L 1631 2131 
L 5344 2131 
L 5344 666 
L 2094 666 
L 2094 -6 
L 5509 -6 
L 5509 -422 
L 1631 -422 
z
" transform="scale(0.015625)"/>
      <path id="MalgunGothic-b300" d="M 5069 -563 
L 5069 2572 
L 4294 2572 
L 4294 -378 
L 3834 -378 
L 3834 5344 
L 4294 5344 
L 4294 2988 
L 5069 2988 
L 5069 5466 
L 5538 5466 
L 5538 -563 
L 5069 -563 
z
M 3391 1153 
Q 2516 1063 825 1063 
L 825 4934 
L 3138 4934 
L 3138 4519 
L 1288 4519 
L 1288 1478 
L 1844 1478 
Q 2791 1478 3359 1550 
L 3391 1153 
z
" transform="scale(0.015625)"/>
     </defs>
     <use xlink:href="#MalgunGothic-c808"/>
     <use xlink:href="#MalgunGothic-b300" transform="translate(100 0)"/>
     <use xlink:href="#MalgunGothic-20" transform="translate(200 0)"/>
     <use xlink:href="#MalgunGothic-addc" transform="translate(235.15625 0)"/>
     <use xlink:href="#MalgunGothic-ce59" transform="translate(335.15625 0)"/>
    </g>
   </g>
   <g id="text_19">
    <!-- 학습 기반 -->
    <g style="fill: #4a4a4a" transform="translate(262.8864 417.229953) scale(0.085 -0.085)">
     <defs>
      <path id="MalgunGothic-ae30" d="M 4884 -563 
L 4884 5466 
L 5350 5466 
L 5350 -563 
L 4884 -563 
z
M 3675 4909 
Q 3653 3656 2956 2611 
Q 2259 1566 959 844 
L 603 1222 
Q 1559 1619 2293 2478 
Q 3028 3338 3175 4494 
L 850 4494 
L 850 4909 
L 3675 4909 
z
" transform="scale(0.015625)"/>
      <path id="MalgunGothic-bc18" d="M 5125 3169 
L 5125 1063 
L 4659 1063 
L 4659 5466 
L 5125 5466 
L 5125 3591 
L 6034 3591 
L 6034 3169 
L 5125 3169 
z
M 756 2119 
L 756 5178 
L 1216 5178 
L 1216 4019 
L 3059 4019 
L 3059 5178 
L 3519 5178 
L 3519 2119 
L 756 2119 
z
M 3059 3603 
L 1216 3603 
L 1216 2534 
L 3059 2534 
L 3059 3603 
z
M 1453 -372 
L 1453 1478 
L 1919 1478 
L 1919 44 
L 5294 44 
L 5294 -372 
L 1453 -372 
z
" transform="scale(0.015625)"/>
     </defs>
     <use xlink:href="#MalgunGothic-d559"/>
     <use xlink:href="#MalgunGothic-c2b5" transform="translate(100 0)"/>
     <use xlink:href="#MalgunGothic-20" transform="translate(200 0)"/>
     <use xlink:href="#MalgunGothic-ae30" transform="translate(235.15625 0)"/>
     <use xlink:href="#MalgunGothic-bc18" transform="translate(335.15625 0)"/>
    </g>
   </g>
   <g id="text_20">
    <!-- 보류 -->
    <g style="fill: #4a4a4a" transform="translate(401.9904 417.229953) scale(0.085 -0.085)">
     <defs>
      <path id="MalgunGothic-b958" d="M 1325 2675 
L 1325 4206 
L 4616 4206 
L 4616 4863 
L 1325 4863 
L 1325 5281 
L 5075 5281 
L 5075 3803 
L 1784 3803 
L 1784 3091 
L 5216 3091 
L 5216 2675 
L 1325 2675 
z
M 1881 -563 
L 1881 1588 
L 403 1588 
L 403 2003 
L 5997 2003 
L 5997 1588 
L 4519 1588 
L 4519 -563 
L 4050 -563 
L 4050 1588 
L 2350 1588 
L 2350 -563 
L 1881 -563 
z
" transform="scale(0.015625)"/>
     </defs>
     <use xlink:href="#MalgunGothic-bcf4"/>
     <use xlink:href="#MalgunGothic-b958" transform="translate(100 0)"/>
    </g>
   </g>
   <g id="text_21">
    <!-- 데이터 공급 -->
    <g style="fill: #4a4a4a" transform="translate(541.0944 417.229953) scale(0.085 -0.085)">
     <defs>
      <path id="MalgunGothic-acf5" d="M 5178 5281 
Q 5178 3953 5100 3263 
L 4653 3297 
Q 4709 3956 4709 4863 
L 1375 4863 
L 1375 5281 
L 5178 5281 
z
M 403 2406 
L 403 2822 
L 2778 2822 
L 2778 4044 
L 3238 4044 
L 3238 2822 
L 5997 2822 
L 5997 2406 
L 403 2406 
z
M 3188 -466 
Q 2244 -466 1736 -148 
Q 1228 169 1228 691 
Q 1228 1216 1734 1536 
Q 2241 1856 3188 1856 
Q 4128 1856 4634 1536 
Q 5141 1216 5141 691 
Q 5141 169 4633 -148 
Q 4125 -466 3188 -466 
z
M 3188 1459 
Q 2488 1459 2108 1248 
Q 1728 1038 1728 691 
Q 1728 344 2106 136 
Q 2484 -72 3188 -72 
Q 3891 -72 4269 136 
Q 4647 344 4647 691 
Q 4647 1038 4265 1248 
Q 3884 1459 3188 1459 
z
" transform="scale(0.015625)"/>
      <path id="MalgunGothic-ae09" d="M 403 2656 
L 403 3072 
L 4575 3072 
Q 4634 3663 4634 4831 
L 1338 4831 
L 1338 5253 
L 5100 5253 
Q 5100 3781 5031 3072 
L 5997 3072 
L 5997 2656 
L 403 2656 
z
M 1363 -422 
L 1363 2009 
L 1825 2009 
L 1825 1159 
L 4609 1159 
L 4609 2009 
L 5069 2009 
L 5069 -422 
L 1363 -422 
z
M 4609 750 
L 1825 750 
L 1825 -6 
L 4609 -6 
L 4609 750 
z
" transform="scale(0.015625)"/>
     </defs>
     <use xlink:href="#MalgunGothic-b370"/>
     <use xlink:href="#MalgunGothic-c774" transform="translate(100 0)"/>
     <use xlink:href="#MalgunGothic-d130" transform="translate(200 0)"/>
     <use xlink:href="#MalgunGothic-20" transform="translate(300 0)"/>
     <use xlink:href="#MalgunGothic-acf5" transform="translate(335.15625 0)"/>
     <use xlink:href="#MalgunGothic-ae09" transform="translate(435.15625 0)"/>
    </g>
   </g>
  </g>
 </g>
 <defs>
  <clipPath id="p15bc4d9951">
   <rect x="7.2" y="7.2" width="662.4" height="424.8"/>
  </clipPath>
 </defs>
</svg>
